<?xml version="1.0" encoding="UTF-8" standalone="no"?>
<!DOCTYPE svg PUBLIC "-//W3C//DTD SVG 1.1//EN"
 "http://www.w3.org/Graphics/SVG/1.1/DTD/svg11.dtd">
<!-- Generated by graphviz version 14.1.0 (20251206.1807)
 -->
<!-- Title: src/cLogger.hpp Pages: 1 -->
<!--zoomable 193 -->

<svg id="main" version="1.1" xmlns="http://www.w3.org/2000/svg" xmlns:xlink="http://www.w3.org/1999/xlink" xml:space="preserve" onload="init(evt)">

<style type="text/css"><![CDATA[
.node, .edge {opacity: 0.7;}
.node.selected, .edge.selected {opacity: 1;}
.edge:hover path { stroke: red; }
.edge:hover polygon { stroke: red; fill: red; }
]]></style>

<defs>
  <circle id="rim" cx="0" cy="0" r="7"/>
  <circle id="rim2" cx="0" cy="0" r="3.5"/>
  <g id="zoomPlus">
    <use xlink:href="#rim" fill="#404040"><set attributeName="fill" to="#808080" begin="zoomplus.mouseover" end="zoomplus.mouseout"/></use>
    <path d="M-4,0h8M0,-4v8" fill="none" stroke="white" stroke-width="1.5" pointer-events="none"/>
  </g>
  <g id="zoomMin">
    <use xlink:href="#rim" fill="#404040"><set attributeName="fill" to="#808080" begin="zoomminus.mouseover" end="zoomminus.mouseout"/></use>
    <path d="M-4,0h8" fill="none" stroke="white" stroke-width="1.5" pointer-events="none"/>
  </g>
  <g id="arrowUp" transform="translate(30 24)">
    <use xlink:href="#rim"/>
    <path pointer-events="none" fill="none" stroke="white" stroke-width="1.5" d="M0,-3.0v7 M-2.5,-0.5L0,-3.0L2.5,-0.5"/>
  </g>
  <g id="arrowRight" transform="rotate(90) translate(36 -43)">
    <use xlink:href="#rim"/>
    <path pointer-events="none" fill="none" stroke="white" stroke-width="1.5" d="M0,-3.0v7 M-2.5,-0.5L0,-3.0L2.5,-0.5"/>
  </g>
  <g id="arrowDown" transform="rotate(180) translate(-30 -48)">
    <use xlink:href="#rim"/>
    <path pointer-events="none" fill="none" stroke="white" stroke-width="1.5" d="M0,-3.0v7 M-2.5,-0.5L0,-3.0L2.5,-0.5"/>
  </g>
  <g id="arrowLeft" transform="rotate(270) translate(-36 17)">
    <use xlink:href="#rim"/>
    <path pointer-events="none" fill="none" stroke="white" stroke-width="1.5" d="M0,-3.0v7 M-2.5,-0.5L0,-3.0L2.5,-0.5"/>
  </g>
  <g id="resetDef">
    <use xlink:href="#rim2" fill="#404040"><set attributeName="fill" to="#808080" begin="reset.mouseover" end="reset.mouseout"/></use>
  </g>
</defs>
<script type="application/ecmascript">
var viewWidth = 564;
var viewHeight = 193;
var sectionId = 'dynsection-1';
</script>
<script type="application/ecmascript" xlink:href="svg.min.js"/>
<svg id="graph" class="graph">
<g id="viewport">
<title>src/cLogger.hpp</title>
<!-- Node1 -->
<g id="Node000001" class="node">
<title>Node1</title>
<g id="a_Node000001"><a xlink:title=" ">
<polygon fill="#999999" stroke="#666666" points="443.88,-185 358.88,-185 358.88,-165.75 443.88,-165.75 443.88,-185"/>
<text xml:space="preserve" text-anchor="middle" x="401.38" y="-171.5" font-family="Helvetica,sans-Serif" font-size="10.00">src/cLogger.hpp</text>
</a>
</g>
</g>
<!-- Node2 -->
<g id="Node000002" class="node">
<title>Node2</title>
<g id="a_Node000002"><a xlink:href="c_db_worker_8hpp.html" target="_top" xlink:title=" ">
<polygon fill="white" stroke="#666666" points="353,-129.75 253.75,-129.75 253.75,-110.5 353,-110.5 353,-129.75"/>
<text xml:space="preserve" text-anchor="middle" x="303.38" y="-116.25" font-family="Helvetica,sans-Serif" font-size="10.00">src/cDbWorker.hpp</text>
</a>
</g>
</g>
<!-- Node1&#45;&gt;Node2 -->
<g id="edge1_Node000001_Node000002" class="edge">
<title>Node1&#45;&gt;Node2</title>
<g id="a_edge1_Node000001_Node000002"><a xlink:title=" ">
<path fill="none" stroke="#63b8ff" d="M375.12,-160.11C357.63,-150.61 335.17,-138.4 320.08,-130.2"/>
<polygon fill="#63b8ff" stroke="#63b8ff" points="372.96,-162.92 383.42,-164.62 376.31,-156.77 372.96,-162.92"/>
</a>
</g>
</g>
<!-- Node6 -->
<g id="Node000006" class="node">
<title>Node6</title>
<g id="a_Node000006"><a xlink:href="c_p_query_8hpp.html" target="_top" xlink:title=" ">
<polygon fill="white" stroke="#666666" points="465.38,-74.5 377.38,-74.5 377.38,-55.25 465.38,-55.25 465.38,-74.5"/>
<text xml:space="preserve" text-anchor="middle" x="421.38" y="-61" font-family="Helvetica,sans-Serif" font-size="10.00">src/cPQuery.hpp</text>
</a>
</g>
</g>
<!-- Node1&#45;&gt;Node6 -->
<g id="edge11_Node000001_Node000006" class="edge">
<title>Node1&#45;&gt;Node6</title>
<g id="a_edge11_Node000001_Node000006"><a xlink:title=" ">
<path fill="none" stroke="#63b8ff" d="M405.07,-154.35C409.43,-130.65 416.52,-92.22 419.72,-74.88"/>
<polygon fill="#63b8ff" stroke="#63b8ff" points="401.66,-153.54 403.29,-164.01 408.54,-154.81 401.66,-153.54"/>
</a>
</g>
</g>
<!-- Node11 -->
<g id="Node000011" class="node">
<title>Node11</title>
<g id="a_Node000011"><a xlink:href="c_logger_8cpp.html" target="_top" xlink:title=" ">
<polygon fill="white" stroke="#666666" points="514.88,-129.75 429.88,-129.75 429.88,-110.5 514.88,-110.5 514.88,-129.75"/>
<text xml:space="preserve" text-anchor="middle" x="472.38" y="-116.25" font-family="Helvetica,sans-Serif" font-size="10.00">src/cLogger.cpp</text>
</a>
</g>
</g>
<!-- Node1&#45;&gt;Node11 -->
<g id="edge10_Node000001_Node000011" class="edge">
<title>Node1&#45;&gt;Node11</title>
<g id="a_edge10_Node000001_Node000011"><a xlink:title=" ">
<path fill="none" stroke="#63b8ff" d="M422.62,-158.44C435.02,-149.14 450.2,-137.76 460.51,-130.02"/>
<polygon fill="#63b8ff" stroke="#63b8ff" points="420.53,-155.63 414.63,-164.43 424.73,-161.23 420.53,-155.63"/>
</a>
</g>
</g>
<!-- Node3 -->
<g id="Node000003" class="node">
<title>Node3</title>
<g id="a_Node000003"><a xlink:href="c_db_worker_8cpp.html" target="_top" xlink:title=" ">
<polygon fill="white" stroke="#666666" points="230,-74.5 130.75,-74.5 130.75,-55.25 230,-55.25 230,-74.5"/>
<text xml:space="preserve" text-anchor="middle" x="180.38" y="-61" font-family="Helvetica,sans-Serif" font-size="10.00">src/cDbWorker.cpp</text>
</a>
</g>
</g>
<!-- Node2&#45;&gt;Node3 -->
<g id="edge2_Node000002_Node000003" class="edge">
<title>Node2&#45;&gt;Node3</title>
<g id="a_edge2_Node000002_Node000003"><a xlink:title=" ">
<path fill="none" stroke="#63b8ff" d="M271.95,-105.52C249.79,-95.93 220.73,-83.34 201.34,-74.95"/>
<polygon fill="#63b8ff" stroke="#63b8ff" points="270.55,-108.73 281.12,-109.49 273.33,-102.31 270.55,-108.73"/>
</a>
</g>
</g>
<!-- Node4 -->
<g id="Node000004" class="node">
<title>Node4</title>
<g id="a_Node000004"><a xlink:href="c_mysql_worker_8hpp.html" target="_top" xlink:title=" ">
<polygon fill="white" stroke="#666666" points="112.75,-74.5 0,-74.5 0,-55.25 112.75,-55.25 112.75,-74.5"/>
<text xml:space="preserve" text-anchor="middle" x="56.38" y="-61" font-family="Helvetica,sans-Serif" font-size="10.00">src/cMysqlWorker.hpp</text>
</a>
</g>
</g>
<!-- Node2&#45;&gt;Node4 -->
<g id="edge3_Node000002_Node000004" class="edge">
<title>Node2&#45;&gt;Node4</title>
<g id="a_edge3_Node000002_Node000004"><a xlink:title=" ">
<path fill="none" stroke="#63b8ff" d="M250.08,-107.63C204.65,-97.84 140.24,-83.95 98.38,-74.93"/>
<polygon fill="#63b8ff" stroke="#63b8ff" points="249.2,-111.03 259.72,-109.71 250.68,-104.18 249.2,-111.03"/>
</a>
</g>
</g>
<!-- Node2&#45;&gt;Node6 -->
<g id="edge5_Node000002_Node000006" class="edge">
<title>Node2&#45;&gt;Node6</title>
<g id="a_edge5_Node000002_Node000006"><a xlink:title=" ">
<path fill="none" stroke="#63b8ff" d="M333.81,-105.39C355.03,-95.81 382.75,-83.31 401.26,-74.95"/>
<polygon fill="#63b8ff" stroke="#63b8ff" points="332.45,-102.17 324.77,-109.47 335.33,-108.55 332.45,-102.17"/>
</a>
</g>
</g>
<!-- Node9 -->
<g id="Node000009" class="node">
<title>Node9</title>
<g id="a_Node000009"><a xlink:href="c_pgsql_worker_8hpp.html" target="_top" xlink:title=" ">
<polygon fill="white" stroke="#666666" points="359,-74.5 247.75,-74.5 247.75,-55.25 359,-55.25 359,-74.5"/>
<text xml:space="preserve" text-anchor="middle" x="303.38" y="-61" font-family="Helvetica,sans-Serif" font-size="10.00">src/cPgsqlWorker.hpp</text>
</a>
</g>
</g>
<!-- Node2&#45;&gt;Node9 -->
<g id="edge8_Node000002_Node000009" class="edge">
<title>Node2&#45;&gt;Node9</title>
<g id="a_edge8_Node000002_Node000009"><a xlink:title=" ">
<path fill="none" stroke="#63b8ff" d="M303.38,-98.88C303.38,-90.59 303.38,-81.42 303.38,-74.86"/>
<polygon fill="#63b8ff" stroke="#63b8ff" points="299.88,-98.82 303.38,-108.82 306.88,-98.82 299.88,-98.82"/>
</a>
</g>
</g>
<!-- Node5 -->
<g id="Node000005" class="node">
<title>Node5</title>
<g id="a_Node000005"><a xlink:href="c_mysql_worker_8cpp.html" target="_top" xlink:title=" ">
<polygon fill="white" stroke="#666666" points="112.75,-19.25 0,-19.25 0,0 112.75,0 112.75,-19.25"/>
<text xml:space="preserve" text-anchor="middle" x="56.38" y="-5.75" font-family="Helvetica,sans-Serif" font-size="10.00">src/cMysqlWorker.cpp</text>
</a>
</g>
</g>
<!-- Node4&#45;&gt;Node5 -->
<g id="edge4_Node000004_Node000005" class="edge">
<title>Node4&#45;&gt;Node5</title>
<g id="a_edge4_Node000004_Node000005"><a xlink:title=" ">
<path fill="none" stroke="#63b8ff" d="M56.38,-43.63C56.38,-35.34 56.38,-26.17 56.38,-19.61"/>
<polygon fill="#63b8ff" stroke="#63b8ff" points="52.88,-43.57 56.38,-53.57 59.88,-43.57 52.88,-43.57"/>
</a>
</g>
</g>
<!-- Node7 -->
<g id="Node000007" class="node">
<title>Node7</title>
<g id="a_Node000007"><a xlink:href="c_p_query_8cpp.html" target="_top" xlink:title=" ">
<polygon fill="white" stroke="#666666" points="465.38,-19.25 377.38,-19.25 377.38,0 465.38,0 465.38,-19.25"/>
<text xml:space="preserve" text-anchor="middle" x="421.38" y="-5.75" font-family="Helvetica,sans-Serif" font-size="10.00">src/cPQuery.cpp</text>
</a>
</g>
</g>
<!-- Node6&#45;&gt;Node7 -->
<g id="edge6_Node000006_Node000007" class="edge">
<title>Node6&#45;&gt;Node7</title>
<g id="a_edge6_Node000006_Node000007"><a xlink:title=" ">
<path fill="none" stroke="#63b8ff" d="M421.38,-43.63C421.38,-35.34 421.38,-26.17 421.38,-19.61"/>
<polygon fill="#63b8ff" stroke="#63b8ff" points="417.88,-43.57 421.38,-53.57 424.88,-43.57 417.88,-43.57"/>
</a>
</g>
</g>
<!-- Node8 -->
<g id="Node000008" class="node">
<title>Node8</title>
<g id="a_Node000008"><a xlink:href="main_8cpp.html" target="_top" xlink:title=" ">
<polygon fill="white" stroke="#666666" points="555.5,-19.25 483.25,-19.25 483.25,0 555.5,0 555.5,-19.25"/>
<text xml:space="preserve" text-anchor="middle" x="519.38" y="-5.75" font-family="Helvetica,sans-Serif" font-size="10.00">src/main.cpp</text>
</a>
</g>
</g>
<!-- Node6&#45;&gt;Node8 -->
<g id="edge7_Node000006_Node000008" class="edge">
<title>Node6&#45;&gt;Node8</title>
<g id="a_edge7_Node000006_Node000008"><a xlink:title=" ">
<path fill="none" stroke="#63b8ff" d="M447.63,-49.61C465.12,-40.11 487.58,-27.9 502.67,-19.7"/>
<polygon fill="#63b8ff" stroke="#63b8ff" points="446.44,-46.27 439.33,-54.12 449.79,-52.42 446.44,-46.27"/>
</a>
</g>
</g>
<!-- Node10 -->
<g id="Node000010" class="node">
<title>Node10</title>
<g id="a_Node000010"><a xlink:href="c_pgsql_worker_8cpp.html" target="_top" xlink:title=" ">
<polygon fill="white" stroke="#666666" points="359,-19.25 247.75,-19.25 247.75,0 359,0 359,-19.25"/>
<text xml:space="preserve" text-anchor="middle" x="303.38" y="-5.75" font-family="Helvetica,sans-Serif" font-size="10.00">src/cPgsqlWorker.cpp</text>
</a>
</g>
</g>
<!-- Node9&#45;&gt;Node10 -->
<g id="edge9_Node000009_Node000010" class="edge">
<title>Node9&#45;&gt;Node10</title>
<g id="a_edge9_Node000009_Node000010"><a xlink:title=" ">
<path fill="none" stroke="#63b8ff" d="M303.38,-43.63C303.38,-35.34 303.38,-26.17 303.38,-19.61"/>
<polygon fill="#63b8ff" stroke="#63b8ff" points="299.88,-43.57 303.38,-53.57 306.88,-43.57 299.88,-43.57"/>
</a>
</g>
</g>
</g>
</svg>

<g id="navigator" transform="translate(0 0)" fill="#404254">
  <rect fill="#f2f5e9" fill-opacity="0.5" stroke="#606060" stroke-width=".5" x="0" y="0" width="60" height="60"/>
  <use id="zoomplus" xlink:href="#zoomPlus" x="17" y="9" onmousedown="handleZoom(evt,'in')"/>
  <use id="zoomminus" xlink:href="#zoomMin" x="42" y="9" onmousedown="handleZoom(evt,'out')"/>
  <use id="reset" xlink:href="#resetDef" x="30" y="36" onmousedown="handleReset()"/>
   <use id="arrowup" xlink:href="#arrowUp" x="0" y="0" onmousedown="handlePan(0,-1)"/>
  <use id="arrowright" xlink:href="#arrowRight" x="0" y="0" onmousedown="handlePan(1,0)"/>
  <use id="arrowdown" xlink:href="#arrowDown" x="0" y="0" onmousedown="handlePan(0,1)"/>
  <use id="arrowleft" xlink:href="#arrowLeft" x="0" y="0" onmousedown="handlePan(-1,0)"/>
</g>
<svg viewBox="0 0 15 15" width="100%" height="30px" preserveAspectRatio="xMaxYMin meet">
 <g id="arrow_out" transform="scale(0.3 0.3)">
  <a xlink:href="c_logger_8hpp__dep__incl_org.svg" target="_base">
   <rect id="button" ry="5" rx="5" y="6" x="6" height="38" width="38"
        fill="#f2f5e9" fill-opacity="0.5" stroke="#606060" stroke-width="1.0"/>
   <path id="arrow"
     d="M 11.500037,31.436501 C 11.940474,20.09759 22.043105,11.32322 32.158766,21.979434 L 37.068811,17.246167 C 37.068811,17.246167 37.088388,32 37.088388,32 L 22.160133,31.978069 C 22.160133,31.978069 26.997745,27.140456 26.997745,27.140456 C 18.528582,18.264221 13.291696,25.230495 11.500037,31.436501 z"
     style="fill:#404040;"/>
  </a>
 </g>
</svg>

<style type='text/css'>
<![CDATA[
[data-mouse-over-selected='false'] { opacity: 0.7; }
[data-mouse-over-selected='true']  { opacity: 1.0; }
]]>
</style>
<script type="application/ecmascript"><![CDATA[
document.addEventListener('DOMContentLoaded', (event) => {
  highlightEdges();
  highlightAdjacentNodes();
});
]]></script>
</svg>
