<?xml version="1.0" encoding="UTF-8" standalone="no"?>
<!DOCTYPE svg PUBLIC "-//W3C//DTD SVG 1.1//EN"
 "http://www.w3.org/Graphics/SVG/1.1/DTD/svg11.dtd">
<!-- Generated by graphviz version 14.1.0 (20251206.1807)
 -->
<!-- Title: src/cMysqlWorker.cpp Pages: 1 -->
<!--zoomable 304 -->

<svg id="main" version="1.1" xmlns="http://www.w3.org/2000/svg" xmlns:xlink="http://www.w3.org/1999/xlink" xml:space="preserve" onload="init(evt)">

<style type="text/css"><![CDATA[
.node, .edge {opacity: 0.7;}
.node.selected, .edge.selected {opacity: 1;}
.edge:hover path { stroke: red; }
.edge:hover polygon { stroke: red; fill: red; }
]]></style>

<defs>
  <circle id="rim" cx="0" cy="0" r="7"/>
  <circle id="rim2" cx="0" cy="0" r="3.5"/>
  <g id="zoomPlus">
    <use xlink:href="#rim" fill="#404040"><set attributeName="fill" to="#808080" begin="zoomplus.mouseover" end="zoomplus.mouseout"/></use>
    <path d="M-4,0h8M0,-4v8" fill="none" stroke="white" stroke-width="1.5" pointer-events="none"/>
  </g>
  <g id="zoomMin">
    <use xlink:href="#rim" fill="#404040"><set attributeName="fill" to="#808080" begin="zoomminus.mouseover" end="zoomminus.mouseout"/></use>
    <path d="M-4,0h8" fill="none" stroke="white" stroke-width="1.5" pointer-events="none"/>
  </g>
  <g id="arrowUp" transform="translate(30 24)">
    <use xlink:href="#rim"/>
    <path pointer-events="none" fill="none" stroke="white" stroke-width="1.5" d="M0,-3.0v7 M-2.5,-0.5L0,-3.0L2.5,-0.5"/>
  </g>
  <g id="arrowRight" transform="rotate(90) translate(36 -43)">
    <use xlink:href="#rim"/>
    <path pointer-events="none" fill="none" stroke="white" stroke-width="1.5" d="M0,-3.0v7 M-2.5,-0.5L0,-3.0L2.5,-0.5"/>
  </g>
  <g id="arrowDown" transform="rotate(180) translate(-30 -48)">
    <use xlink:href="#rim"/>
    <path pointer-events="none" fill="none" stroke="white" stroke-width="1.5" d="M0,-3.0v7 M-2.5,-0.5L0,-3.0L2.5,-0.5"/>
  </g>
  <g id="arrowLeft" transform="rotate(270) translate(-36 17)">
    <use xlink:href="#rim"/>
    <path pointer-events="none" fill="none" stroke="white" stroke-width="1.5" d="M0,-3.0v7 M-2.5,-0.5L0,-3.0L2.5,-0.5"/>
  </g>
  <g id="resetDef">
    <use xlink:href="#rim2" fill="#404040"><set attributeName="fill" to="#808080" begin="reset.mouseover" end="reset.mouseout"/></use>
  </g>
</defs>
<script type="application/ecmascript">
var viewWidth = 774;
var viewHeight = 304;
var sectionId = 'dynsection-0';
</script>
<script type="application/ecmascript" xlink:href="svg.min.js"/>
<svg id="graph" class="graph">
<g id="viewport">
<title>src/cMysqlWorker.cpp</title>
<!-- Node1 -->
<g id="Node000001" class="node">
<title>Node1</title>
<g id="a_Node000001"><a xlink:title=" ">
<polygon fill="#999999" stroke="#666666" points="463.25,-295.5 350.5,-295.5 350.5,-276.25 463.25,-276.25 463.25,-295.5"/>
<text xml:space="preserve" text-anchor="middle" x="406.88" y="-282" font-family="Helvetica,sans-Serif" font-size="10.00">src/cMysqlWorker.cpp</text>
</a>
</g>
</g>
<!-- Node2 -->
<g id="Node000002" class="node">
<title>Node2</title>
<g id="a_Node000002"><a xlink:title=" ">
<polygon fill="#e0e0e0" stroke="#999999" points="54.62,-240.25 1.12,-240.25 1.12,-221 54.62,-221 54.62,-240.25"/>
<text xml:space="preserve" text-anchor="middle" x="27.88" y="-226.75" font-family="Helvetica,sans-Serif" font-size="10.00">iostream</text>
</a>
</g>
</g>
<!-- Node1&#45;&gt;Node2 -->
<g id="edge1_Node000001_Node000002" class="edge">
<title>Node1&#45;&gt;Node2</title>
<g id="a_edge1_Node000001_Node000002"><a xlink:title=" ">
<path fill="none" stroke="#63b8ff" d="M350.16,-278.72C282.85,-271.11 167.33,-257.08 68.88,-240.25 67.87,-240.08 66.85,-239.9 65.83,-239.72"/>
<polygon fill="#63b8ff" stroke="#63b8ff" points="66.69,-236.32 56.21,-237.86 65.37,-243.19 66.69,-236.32"/>
</a>
</g>
</g>
<!-- Node3 -->
<g id="Node000003" class="node">
<title>Node3</title>
<g id="a_Node000003"><a xlink:href="h_common_8hpp.html" target="_top" xlink:title=" ">
<polygon fill="white" stroke="#666666" points="79.75,-74.5 0,-74.5 0,-55.25 79.75,-55.25 79.75,-74.5"/>
<text xml:space="preserve" text-anchor="middle" x="39.88" y="-61" font-family="Helvetica,sans-Serif" font-size="10.00">hCommon.hpp</text>
</a>
</g>
</g>
<!-- Node1&#45;&gt;Node3 -->
<g id="edge2_Node000001_Node000003" class="edge">
<title>Node1&#45;&gt;Node3</title>
<g id="a_edge2_Node000001_Node000003"><a xlink:title=" ">
<path fill="none" stroke="#63b8ff" d="M350.26,-278.45C312.72,-272.46 263.31,-261.16 223.88,-240.25 147.82,-199.92 80.56,-119.41 53.06,-83.67"/>
<polygon fill="#63b8ff" stroke="#63b8ff" points="56.13,-81.92 47.3,-76.06 50.55,-86.15 56.13,-81.92"/>
</a>
</g>
</g>
<!-- Node6 -->
<g id="Node000006" class="node">
<title>Node6</title>
<g id="a_Node000006"><a xlink:href="c_mysql_worker_8hpp.html" target="_top" xlink:title=" ">
<polygon fill="white" stroke="#666666" points="455,-240.25 358.75,-240.25 358.75,-221 455,-221 455,-240.25"/>
<text xml:space="preserve" text-anchor="middle" x="406.88" y="-226.75" font-family="Helvetica,sans-Serif" font-size="10.00">cMysqlWorker.hpp</text>
</a>
</g>
</g>
<!-- Node1&#45;&gt;Node6 -->
<g id="edge5_Node000001_Node000006" class="edge">
<title>Node1&#45;&gt;Node6</title>
<g id="a_edge5_Node000001_Node000006"><a xlink:title=" ">
<path fill="none" stroke="#63b8ff" d="M406.88,-276.08C406.88,-269.57 406.88,-260.42 406.88,-252.12"/>
<polygon fill="#63b8ff" stroke="#63b8ff" points="410.38,-252.12 406.88,-242.12 403.38,-252.12 410.38,-252.12"/>
</a>
</g>
</g>
<!-- Node23 -->
<g id="Node000023" class="node">
<title>Node23</title>
<g id="a_Node000023"><a xlink:href="c_mysql_database_8hpp.html" target="_top" xlink:title=" ">
<polygon fill="white" stroke="#666666" points="341,-240.25 232.75,-240.25 232.75,-221 341,-221 341,-240.25"/>
<text xml:space="preserve" text-anchor="middle" x="286.88" y="-226.75" font-family="Helvetica,sans-Serif" font-size="10.00">cMysqlDatabase.hpp</text>
</a>
</g>
</g>
<!-- Node1&#45;&gt;Node23 -->
<g id="edge30_Node000001_Node000023" class="edge">
<title>Node1&#45;&gt;Node23</title>
<g id="a_edge30_Node000001_Node000023"><a xlink:title=" ">
<path fill="none" stroke="#63b8ff" d="M386.52,-275.84C367.64,-267.47 339.29,-254.88 317.65,-245.28"/>
<polygon fill="#63b8ff" stroke="#63b8ff" points="319.27,-242.17 308.71,-241.32 316.44,-248.57 319.27,-242.17"/>
</a>
</g>
</g>
<!-- Node24 -->
<g id="Node000024" class="node">
<title>Node24</title>
<g id="a_Node000024"><a xlink:href="c_sql_file_parser_8hpp.html" target="_top" xlink:title=" ">
<polygon fill="white" stroke="#666666" points="594.75,-185 497,-185 497,-165.75 594.75,-165.75 594.75,-185"/>
<text xml:space="preserve" text-anchor="middle" x="545.88" y="-171.5" font-family="Helvetica,sans-Serif" font-size="10.00">cSqlFileParser.hpp</text>
</a>
</g>
</g>
<!-- Node1&#45;&gt;Node24 -->
<g id="edge33_Node000001_Node000024" class="edge">
<title>Node1&#45;&gt;Node24</title>
<g id="a_edge33_Node000001_Node000024"><a xlink:title=" ">
<path fill="none" stroke="#63b8ff" d="M418.25,-276C441.67,-257.72 495.55,-215.65 525.27,-192.46"/>
<polygon fill="#63b8ff" stroke="#63b8ff" points="527.42,-195.22 533.15,-186.31 523.11,-189.7 527.42,-195.22"/>
</a>
</g>
</g>
<!-- Node25 -->
<g id="Node000025" class="node">
<title>Node25</title>
<g id="a_Node000025"><a xlink:href="c_my_gen_log_parser_8hpp.html" target="_top" xlink:title=" ">
<polygon fill="white" stroke="#666666" points="766.38,-185 651.38,-185 651.38,-165.75 766.38,-165.75 766.38,-185"/>
<text xml:space="preserve" text-anchor="middle" x="708.88" y="-171.5" font-family="Helvetica,sans-Serif" font-size="10.00">cMyGenLogParser.hpp</text>
</a>
</g>
</g>
<!-- Node1&#45;&gt;Node25 -->
<g id="edge36_Node000001_Node000025" class="edge">
<title>Node1&#45;&gt;Node25</title>
<g id="a_edge36_Node000001_Node000025"><a xlink:title=" ">
<path fill="none" stroke="#63b8ff" d="M463.7,-281.71C533.24,-276.81 645.85,-265.21 678.88,-240.25 692.93,-229.63 700.66,-210.8 704.73,-196.32"/>
<polygon fill="#63b8ff" stroke="#63b8ff" points="708.06,-197.48 707,-186.94 701.25,-195.83 708.06,-197.48"/>
</a>
</g>
</g>
<!-- Node26 -->
<g id="Node000026" class="node">
<title>Node26</title>
<g id="a_Node000026"><a xlink:href="c_my_bin_log_parser_8hpp.html" target="_top" xlink:title=" ">
<polygon fill="white" stroke="#666666" points="669.5,-240.25 558.25,-240.25 558.25,-221 669.5,-221 669.5,-240.25"/>
<text xml:space="preserve" text-anchor="middle" x="613.88" y="-226.75" font-family="Helvetica,sans-Serif" font-size="10.00">cMyBinLogParser.hpp</text>
</a>
</g>
</g>
<!-- Node1&#45;&gt;Node26 -->
<g id="edge38_Node000001_Node000026" class="edge">
<title>Node1&#45;&gt;Node26</title>
<g id="a_edge38_Node000001_Node000026"><a xlink:title=" ">
<path fill="none" stroke="#63b8ff" d="M441.99,-275.84C476.63,-266.93 529.78,-253.26 567.8,-243.48"/>
<polygon fill="#63b8ff" stroke="#63b8ff" points="568.31,-246.96 577.12,-241.08 566.57,-240.18 568.31,-246.96"/>
</a>
</g>
</g>
<!-- Node4 -->
<g id="Node000004" class="node">
<title>Node4</title>
<g id="a_Node000004"><a xlink:href="e_types_8hpp.html" target="_top" xlink:title=" ">
<polygon fill="white" stroke="#666666" points="192,-19.25 125.75,-19.25 125.75,0 192,0 192,-19.25"/>
<text xml:space="preserve" text-anchor="middle" x="158.88" y="-5.75" font-family="Helvetica,sans-Serif" font-size="10.00">eTypes.hpp</text>
</a>
</g>
</g>
<!-- Node3&#45;&gt;Node4 -->
<g id="edge3_Node000003_Node000004" class="edge">
<title>Node3&#45;&gt;Node4</title>
<g id="a_edge3_Node000003_Node000004"><a xlink:title=" ">
<path fill="none" stroke="#63b8ff" d="M60.06,-54.84C78.78,-46.47 106.9,-33.88 128.36,-24.28"/>
<polygon fill="#63b8ff" stroke="#63b8ff" points="129.51,-27.6 137.21,-20.32 126.65,-21.21 129.51,-27.6"/>
</a>
</g>
</g>
<!-- Node5 -->
<g id="Node000005" class="node">
<title>Node5</title>
<g id="a_Node000005"><a xlink:title=" ">
<polygon fill="#e0e0e0" stroke="#999999" points="446.88,-19.25 406.88,-19.25 406.88,0 446.88,0 446.88,-19.25"/>
<text xml:space="preserve" text-anchor="middle" x="426.88" y="-5.75" font-family="Helvetica,sans-Serif" font-size="10.00">string</text>
</a>
</g>
</g>
<!-- Node3&#45;&gt;Node5 -->
<g id="edge4_Node000003_Node000005" class="edge">
<title>Node3&#45;&gt;Node5</title>
<g id="a_edge4_Node000003_Node000005"><a xlink:title=" ">
<path fill="none" stroke="#63b8ff" d="M80.23,-56.63C83.15,-56.15 86.06,-55.68 88.88,-55.25 201.35,-37.94 335.52,-21.46 395.36,-14.33"/>
<polygon fill="#63b8ff" stroke="#63b8ff" points="395.62,-17.82 405.14,-13.17 394.79,-10.87 395.62,-17.82"/>
</a>
</g>
</g>
<!-- Node7 -->
<g id="Node000007" class="node">
<title>Node7</title>
<g id="a_Node000007"><a xlink:href="c_db_worker_8hpp.html" target="_top" xlink:title=" ">
<polygon fill="white" stroke="#666666" points="448.25,-185 365.5,-185 365.5,-165.75 448.25,-165.75 448.25,-185"/>
<text xml:space="preserve" text-anchor="middle" x="406.88" y="-171.5" font-family="Helvetica,sans-Serif" font-size="10.00">cDbWorker.hpp</text>
</a>
</g>
</g>
<!-- Node6&#45;&gt;Node7 -->
<g id="edge6_Node000006_Node000007" class="edge">
<title>Node6&#45;&gt;Node7</title>
<g id="a_edge6_Node000006_Node000007"><a xlink:title=" ">
<path fill="none" stroke="#63b8ff" d="M406.88,-220.83C406.88,-214.32 406.88,-205.17 406.88,-196.87"/>
<polygon fill="#63b8ff" stroke="#63b8ff" points="410.38,-196.87 406.88,-186.87 403.38,-196.87 410.38,-196.87"/>
</a>
</g>
</g>
<!-- Node22 -->
<g id="Node000022" class="node">
<title>Node22</title>
<g id="a_Node000022"><a xlink:title=" ">
<polygon fill="#e0e0e0" stroke="#999999" points="329.12,-185 278.62,-185 278.62,-165.75 329.12,-165.75 329.12,-185"/>
<text xml:space="preserve" text-anchor="middle" x="303.88" y="-171.5" font-family="Helvetica,sans-Serif" font-size="10.00">mysql.h</text>
</a>
</g>
</g>
<!-- Node6&#45;&gt;Node22 -->
<g id="edge29_Node000006_Node000022" class="edge">
<title>Node6&#45;&gt;Node22</title>
<g id="a_edge29_Node000006_Node000022"><a xlink:title=" ">
<path fill="none" stroke="#63b8ff" d="M389.4,-220.59C373.57,-212.41 349.97,-200.21 331.57,-190.69"/>
<polygon fill="#63b8ff" stroke="#63b8ff" points="333.27,-187.63 322.78,-186.15 330.05,-193.85 333.27,-187.63"/>
</a>
</g>
</g>
<!-- Node7&#45;&gt;Node5 -->
<g id="edge7_Node000007_Node000005" class="edge">
<title>Node7&#45;&gt;Node5</title>
<g id="a_edge7_Node000007_Node000005"><a xlink:title=" ">
<path fill="none" stroke="#63b8ff" d="M407.95,-165.57C411.04,-140.25 420.02,-66.75 424.41,-30.84"/>
<polygon fill="#63b8ff" stroke="#63b8ff" points="427.87,-31.33 425.61,-20.97 420.92,-30.48 427.87,-31.33"/>
</a>
</g>
</g>
<!-- Node8 -->
<g id="Node000008" class="node">
<title>Node8</title>
<g id="a_Node000008"><a xlink:title=" ">
<polygon fill="#e0e0e0" stroke="#999999" points="398.5,-74.5 347.25,-74.5 347.25,-55.25 398.5,-55.25 398.5,-74.5"/>
<text xml:space="preserve" text-anchor="middle" x="372.88" y="-61" font-family="Helvetica,sans-Serif" font-size="10.00">memory</text>
</a>
</g>
</g>
<!-- Node7&#45;&gt;Node8 -->
<g id="edge8_Node000007_Node000008" class="edge">
<title>Node7&#45;&gt;Node8</title>
<g id="a_edge8_Node000007_Node000008"><a xlink:title=" ">
<path fill="none" stroke="#63b8ff" d="M404.09,-165.5C398.66,-148.17 386.54,-109.48 379.1,-85.74"/>
<polygon fill="#63b8ff" stroke="#63b8ff" points="382.48,-84.82 376.15,-76.32 375.8,-86.91 382.48,-84.82"/>
</a>
</g>
</g>
<!-- Node9 -->
<g id="Node000009" class="node">
<title>Node9</title>
<g id="a_Node000009"><a xlink:title=" ">
<polygon fill="#e0e0e0" stroke="#999999" points="646.38,-129.75 603.38,-129.75 603.38,-110.5 646.38,-110.5 646.38,-129.75"/>
<text xml:space="preserve" text-anchor="middle" x="624.88" y="-116.25" font-family="Helvetica,sans-Serif" font-size="10.00">vector</text>
</a>
</g>
</g>
<!-- Node7&#45;&gt;Node9 -->
<g id="edge9_Node000007_Node000009" class="edge">
<title>Node7&#45;&gt;Node9</title>
<g id="a_edge9_Node000007_Node000009"><a xlink:title=" ">
<path fill="none" stroke="#63b8ff" d="M446.74,-165.31C482.38,-157.11 536.28,-144.46 592.08,-130.14"/>
<polygon fill="#63b8ff" stroke="#63b8ff" points="592.61,-133.62 601.42,-127.73 590.86,-126.84 592.61,-133.62"/>
</a>
</g>
</g>
<!-- Node10 -->
<g id="Node000010" class="node">
<title>Node10</title>
<g id="a_Node000010"><a xlink:title=" ">
<polygon fill="#e0e0e0" stroke="#999999" points="498.38,-129.75 455.38,-129.75 455.38,-110.5 498.38,-110.5 498.38,-129.75"/>
<text xml:space="preserve" text-anchor="middle" x="476.88" y="-116.25" font-family="Helvetica,sans-Serif" font-size="10.00">thread</text>
</a>
</g>
</g>
<!-- Node7&#45;&gt;Node10 -->
<g id="edge10_Node000007_Node000010" class="edge">
<title>Node7&#45;&gt;Node10</title>
<g id="a_edge10_Node000007_Node000010"><a xlink:title=" ">
<path fill="none" stroke="#63b8ff" d="M418.75,-165.34C428.97,-157.57 443.95,-146.17 456.14,-136.9"/>
<polygon fill="#63b8ff" stroke="#63b8ff" points="458.13,-139.78 463.97,-130.94 453.89,-134.21 458.13,-139.78"/>
</a>
</g>
</g>
<!-- Node11 -->
<g id="Node000011" class="node">
<title>Node11</title>
<g id="a_Node000011"><a xlink:title=" ">
<polygon fill="#e0e0e0" stroke="#999999" points="294.5,-129.75 249.25,-129.75 249.25,-110.5 294.5,-110.5 294.5,-129.75"/>
<text xml:space="preserve" text-anchor="middle" x="271.88" y="-116.25" font-family="Helvetica,sans-Serif" font-size="10.00">atomic</text>
</a>
</g>
</g>
<!-- Node7&#45;&gt;Node11 -->
<g id="edge11_Node000007_Node000011" class="edge">
<title>Node7&#45;&gt;Node11</title>
<g id="a_edge11_Node000007_Node000011"><a xlink:title=" ">
<path fill="none" stroke="#63b8ff" d="M383.97,-165.34C362.45,-156.85 329.96,-144.04 305.5,-134.39"/>
<polygon fill="#63b8ff" stroke="#63b8ff" points="306.88,-131.17 296.3,-130.76 304.31,-137.68 306.88,-131.17"/>
</a>
</g>
</g>
<!-- Node12 -->
<g id="Node000012" class="node">
<title>Node12</title>
<g id="a_Node000012"><a xlink:title=" ">
<polygon fill="#e0e0e0" stroke="#999999" points="361,-129.75 312.75,-129.75 312.75,-110.5 361,-110.5 361,-129.75"/>
<text xml:space="preserve" text-anchor="middle" x="336.88" y="-116.25" font-family="Helvetica,sans-Serif" font-size="10.00">random</text>
</a>
</g>
</g>
<!-- Node7&#45;&gt;Node12 -->
<g id="edge12_Node000007_Node000012" class="edge">
<title>Node7&#45;&gt;Node12</title>
<g id="a_edge12_Node000007_Node000012"><a xlink:title=" ">
<path fill="none" stroke="#63b8ff" d="M395,-165.34C384.78,-157.57 369.8,-146.17 357.61,-136.9"/>
<polygon fill="#63b8ff" stroke="#63b8ff" points="359.86,-134.21 349.78,-130.94 355.62,-139.78 359.86,-134.21"/>
</a>
</g>
</g>
<!-- Node13 -->
<g id="Node000013" class="node">
<title>Node13</title>
<g id="a_Node000013"><a xlink:href="c_database_8hpp.html" target="_top" xlink:title=" ">
<polygon fill="white" stroke="#666666" points="192.88,-129.75 110.88,-129.75 110.88,-110.5 192.88,-110.5 192.88,-129.75"/>
<text xml:space="preserve" text-anchor="middle" x="151.88" y="-116.25" font-family="Helvetica,sans-Serif" font-size="10.00">cDatabase.hpp</text>
</a>
</g>
</g>
<!-- Node7&#45;&gt;Node13 -->
<g id="edge13_Node000007_Node000013" class="edge">
<title>Node7&#45;&gt;Node13</title>
<g id="a_edge13_Node000007_Node000013"><a xlink:title=" ">
<path fill="none" stroke="#63b8ff" d="M365.05,-165.64C321.1,-156.46 251.87,-142.01 204.3,-132.07"/>
<polygon fill="#63b8ff" stroke="#63b8ff" points="205.28,-128.7 194.78,-130.08 203.85,-135.55 205.28,-128.7"/>
</a>
</g>
</g>
<!-- Node16 -->
<g id="Node000016" class="node">
<title>Node16</title>
<g id="a_Node000016"><a xlink:href="s_worker_params_8hpp.html" target="_top" xlink:title=" ">
<polygon fill="white" stroke="#666666" points="329.12,-74.5 224.62,-74.5 224.62,-55.25 329.12,-55.25 329.12,-74.5"/>
<text xml:space="preserve" text-anchor="middle" x="276.88" y="-61" font-family="Helvetica,sans-Serif" font-size="10.00">sWorkerParams.hpp</text>
</a>
</g>
</g>
<!-- Node7&#45;&gt;Node16 -->
<g id="edge28_Node000007_Node000016" class="edge">
<title>Node7&#45;&gt;Node16</title>
<g id="a_edge28_Node000007_Node000016"><a xlink:title=" ">
<path fill="none" stroke="#63b8ff" d="M365.09,-169.03C320.76,-162.4 255.05,-149.51 239.88,-129.75 228.31,-114.68 242.54,-95.65 256.57,-82.29"/>
<polygon fill="#63b8ff" stroke="#63b8ff" points="258.75,-85.04 263.92,-75.8 254.11,-79.8 258.75,-85.04"/>
</a>
</g>
</g>
<!-- Node17 -->
<g id="Node000017" class="node">
<title>Node17</title>
<g id="a_Node000017"><a xlink:href="c_infile_parser_8hpp.html" target="_top" xlink:title=" ">
<polygon fill="white" stroke="#666666" points="753.25,-129.75 664.5,-129.75 664.5,-110.5 753.25,-110.5 753.25,-129.75"/>
<text xml:space="preserve" text-anchor="middle" x="708.88" y="-116.25" font-family="Helvetica,sans-Serif" font-size="10.00">cInfileParser.hpp</text>
</a>
</g>
</g>
<!-- Node7&#45;&gt;Node17 -->
<g id="edge20_Node000007_Node000017" class="edge">
<title>Node7&#45;&gt;Node17</title>
<g id="a_edge20_Node000007_Node000017"><a xlink:title=" ">
<path fill="none" stroke="#63b8ff" d="M448.55,-167.03C501.75,-157.65 593.99,-141.38 653.18,-130.95"/>
<polygon fill="#63b8ff" stroke="#63b8ff" points="653.46,-134.45 662.7,-129.27 652.24,-127.56 653.46,-134.45"/>
</a>
</g>
</g>
<!-- Node19 -->
<g id="Node000019" class="node">
<title>Node19</title>
<g id="a_Node000019"><a xlink:href="c_logger_8hpp.html" target="_top" xlink:title=" ">
<polygon fill="white" stroke="#666666" points="585.12,-129.75 516.62,-129.75 516.62,-110.5 585.12,-110.5 585.12,-129.75"/>
<text xml:space="preserve" text-anchor="middle" x="550.88" y="-116.25" font-family="Helvetica,sans-Serif" font-size="10.00">cLogger.hpp</text>
</a>
</g>
</g>
<!-- Node7&#45;&gt;Node19 -->
<g id="edge23_Node000007_Node000019" class="edge">
<title>Node7&#45;&gt;Node19</title>
<g id="a_edge23_Node000007_Node000019"><a xlink:title=" ">
<path fill="none" stroke="#63b8ff" d="M431.3,-165.34C454.47,-156.77 489.54,-143.81 515.71,-134.13"/>
<polygon fill="#63b8ff" stroke="#63b8ff" points="516.74,-137.48 524.91,-130.73 514.31,-130.91 516.74,-137.48"/>
</a>
</g>
</g>
<!-- Node13&#45;&gt;Node8 -->
<g id="edge15_Node000013_Node000008" class="edge">
<title>Node13&#45;&gt;Node8</title>
<g id="a_edge15_Node000013_Node000008"><a xlink:title=" ">
<path fill="none" stroke="#63b8ff" d="M190.01,-110.05C225.34,-101.62 279.65,-88.63 335.98,-74.95"/>
<polygon fill="#63b8ff" stroke="#63b8ff" points="336.52,-78.42 345.41,-72.66 334.87,-71.62 336.52,-78.42"/>
</a>
</g>
</g>
<!-- Node14 -->
<g id="Node000014" class="node">
<title>Node14</title>
<g id="a_Node000014"><a xlink:title=" ">
<polygon fill="#e0e0e0" stroke="#999999" points="206.5,-74.5 161.25,-74.5 161.25,-55.25 206.5,-55.25 206.5,-74.5"/>
<text xml:space="preserve" text-anchor="middle" x="183.88" y="-61" font-family="Helvetica,sans-Serif" font-size="10.00">cstdint</text>
</a>
</g>
</g>
<!-- Node13&#45;&gt;Node14 -->
<g id="edge14_Node000013_Node000014" class="edge">
<title>Node13&#45;&gt;Node14</title>
<g id="a_edge14_Node000013_Node000014"><a xlink:title=" ">
<path fill="none" stroke="#63b8ff" d="M157.16,-110.33C161.35,-103.36 167.35,-93.37 172.61,-84.62"/>
<polygon fill="#63b8ff" stroke="#63b8ff" points="175.55,-86.53 177.7,-76.16 169.55,-82.93 175.55,-86.53"/>
</a>
</g>
</g>
<!-- Node15 -->
<g id="Node000015" class="node">
<title>Node15</title>
<g id="a_Node000015"><a xlink:title=" ">
<polygon fill="#e0e0e0" stroke="#999999" points="143.5,-74.5 98.25,-74.5 98.25,-55.25 143.5,-55.25 143.5,-74.5"/>
<text xml:space="preserve" text-anchor="middle" x="120.88" y="-61" font-family="Helvetica,sans-Serif" font-size="10.00">chrono</text>
</a>
</g>
</g>
<!-- Node13&#45;&gt;Node15 -->
<g id="edge16_Node000013_Node000015" class="edge">
<title>Node13&#45;&gt;Node15</title>
<g id="a_edge16_Node000013_Node000015"><a xlink:title=" ">
<path fill="none" stroke="#63b8ff" d="M146.76,-110.33C142.7,-103.36 136.88,-93.37 131.79,-84.62"/>
<polygon fill="#63b8ff" stroke="#63b8ff" points="134.92,-83.05 126.87,-76.17 128.87,-86.57 134.92,-83.05"/>
</a>
</g>
</g>
<!-- Node13&#45;&gt;Node16 -->
<g id="edge17_Node000013_Node000016" class="edge">
<title>Node13&#45;&gt;Node16</title>
<g id="a_edge17_Node000013_Node000016"><a xlink:title=" ">
<path fill="none" stroke="#63b8ff" d="M173.08,-110.09C192.83,-101.68 222.55,-89.02 245.13,-79.4"/>
<polygon fill="#63b8ff" stroke="#63b8ff" points="246.35,-82.68 254.17,-75.55 243.6,-76.24 246.35,-82.68"/>
</a>
</g>
</g>
<!-- Node16&#45;&gt;Node4 -->
<g id="edge19_Node000016_Node000004" class="edge">
<title>Node16&#45;&gt;Node4</title>
<g id="a_edge19_Node000016_Node000004"><a xlink:title=" ">
<path fill="none" stroke="#63b8ff" d="M256.86,-54.84C238.38,-46.5 210.67,-34 189.43,-24.41"/>
<polygon fill="#63b8ff" stroke="#63b8ff" points="190.92,-21.25 180.37,-20.33 188.05,-27.63 190.92,-21.25"/>
</a>
</g>
</g>
<!-- Node16&#45;&gt;Node5 -->
<g id="edge18_Node000016_Node000005" class="edge">
<title>Node16&#45;&gt;Node5</title>
<g id="a_edge18_Node000016_Node000005"><a xlink:title=" ">
<path fill="none" stroke="#63b8ff" d="M302.32,-54.84C328.18,-45.66 368.26,-31.43 395.94,-21.61"/>
<polygon fill="#63b8ff" stroke="#63b8ff" points="396.93,-24.97 405.18,-18.33 394.59,-18.37 396.93,-24.97"/>
</a>
</g>
</g>
<!-- Node17&#45;&gt;Node5 -->
<g id="edge22_Node000017_Node000005" class="edge">
<title>Node17&#45;&gt;Node5</title>
<g id="a_edge22_Node000017_Node000005"><a xlink:title=" ">
<path fill="none" stroke="#63b8ff" d="M708.38,-110.12C707.1,-96.09 702.49,-69.19 685.88,-55.25 651.87,-26.73 519.99,-15.79 458.62,-12.18"/>
<polygon fill="#63b8ff" stroke="#63b8ff" points="459.03,-8.69 448.85,-11.63 458.64,-15.68 459.03,-8.69"/>
</a>
</g>
</g>
<!-- Node18 -->
<g id="Node000018" class="node">
<title>Node18</title>
<g id="a_Node000018"><a xlink:title=" ">
<polygon fill="#e0e0e0" stroke="#999999" points="676.38,-74.5 627.38,-74.5 627.38,-55.25 676.38,-55.25 676.38,-74.5"/>
<text xml:space="preserve" text-anchor="middle" x="651.88" y="-61" font-family="Helvetica,sans-Serif" font-size="10.00">fstream</text>
</a>
</g>
</g>
<!-- Node17&#45;&gt;Node18 -->
<g id="edge21_Node000017_Node000018" class="edge">
<title>Node17&#45;&gt;Node18</title>
<g id="a_edge21_Node000017_Node000018"><a xlink:title=" ">
<path fill="none" stroke="#63b8ff" d="M699.21,-110.09C691.13,-102.55 679.41,-91.6 669.65,-82.48"/>
<polygon fill="#63b8ff" stroke="#63b8ff" points="672.2,-80.08 662.51,-75.81 667.43,-85.19 672.2,-80.08"/>
</a>
</g>
</g>
<!-- Node19&#45;&gt;Node5 -->
<g id="edge24_Node000019_Node000005" class="edge">
<title>Node19&#45;&gt;Node5</title>
<g id="a_edge24_Node000019_Node000005"><a xlink:title=" ">
<path fill="none" stroke="#63b8ff" d="M559.8,-110.15C571.67,-97.09 589.76,-72.53 576.88,-55.25 549.66,-18.76 493.81,-10.92 458.47,-9.86"/>
<polygon fill="#63b8ff" stroke="#63b8ff" points="458.89,-6.36 448.85,-9.74 458.81,-13.36 458.89,-6.36"/>
</a>
</g>
</g>
<!-- Node19&#45;&gt;Node18 -->
<g id="edge25_Node000019_Node000018" class="edge">
<title>Node19&#45;&gt;Node18</title>
<g id="a_edge25_Node000019_Node000018"><a xlink:title=" ">
<path fill="none" stroke="#63b8ff" d="M568.01,-110.09C583.53,-101.91 606.68,-89.71 624.72,-80.19"/>
<polygon fill="#63b8ff" stroke="#63b8ff" points="626.11,-83.42 633.32,-75.66 622.84,-77.23 626.11,-83.42"/>
</a>
</g>
</g>
<!-- Node20 -->
<g id="Node000020" class="node">
<title>Node20</title>
<g id="a_Node000020"><a xlink:title=" ">
<polygon fill="#e0e0e0" stroke="#999999" points="506.5,-74.5 461.25,-74.5 461.25,-55.25 506.5,-55.25 506.5,-74.5"/>
<text xml:space="preserve" text-anchor="middle" x="483.88" y="-61" font-family="Helvetica,sans-Serif" font-size="10.00">cstring</text>
</a>
</g>
</g>
<!-- Node19&#45;&gt;Node20 -->
<g id="edge26_Node000019_Node000020" class="edge">
<title>Node19&#45;&gt;Node20</title>
<g id="a_edge26_Node000019_Node000020"><a xlink:title=" ">
<path fill="none" stroke="#63b8ff" d="M539.51,-110.09C529.83,-102.4 515.68,-91.15 504.07,-81.93"/>
<polygon fill="#63b8ff" stroke="#63b8ff" points="506.26,-79.2 496.26,-75.72 501.91,-84.68 506.26,-79.2"/>
</a>
</g>
</g>
<!-- Node21 -->
<g id="Node000021" class="node">
<title>Node21</title>
<g id="a_Node000021"><a xlink:title=" ">
<polygon fill="#e0e0e0" stroke="#999999" points="567.38,-74.5 524.38,-74.5 524.38,-55.25 567.38,-55.25 567.38,-74.5"/>
<text xml:space="preserve" text-anchor="middle" x="545.88" y="-61" font-family="Helvetica,sans-Serif" font-size="10.00">cerrno</text>
</a>
</g>
</g>
<!-- Node19&#45;&gt;Node21 -->
<g id="edge27_Node000019_Node000021" class="edge">
<title>Node19&#45;&gt;Node21</title>
<g id="a_edge27_Node000019_Node000021"><a xlink:title=" ">
<path fill="none" stroke="#63b8ff" d="M550.05,-110.33C549.43,-103.74 548.56,-94.46 547.77,-86.07"/>
<polygon fill="#63b8ff" stroke="#63b8ff" points="551.28,-86 546.86,-76.37 544.31,-86.65 551.28,-86"/>
</a>
</g>
</g>
<!-- Node23&#45;&gt;Node13 -->
<g id="edge31_Node000023_Node000013" class="edge">
<title>Node23&#45;&gt;Node13</title>
<g id="a_edge31_Node000023_Node000013"><a xlink:title=" ">
<path fill="none" stroke="#63b8ff" d="M275.83,-220.75C253.08,-202.47 200.75,-160.4 171.89,-137.21"/>
<polygon fill="#63b8ff" stroke="#63b8ff" points="174.24,-134.61 164.26,-131.07 169.86,-140.07 174.24,-134.61"/>
</a>
</g>
</g>
<!-- Node23&#45;&gt;Node22 -->
<g id="edge32_Node000023_Node000022" class="edge">
<title>Node23&#45;&gt;Node22</title>
<g id="a_edge32_Node000023_Node000022"><a xlink:title=" ">
<path fill="none" stroke="#63b8ff" d="M289.68,-220.83C291.81,-214.17 294.82,-204.74 297.52,-196.28"/>
<polygon fill="#63b8ff" stroke="#63b8ff" points="300.84,-197.39 300.55,-186.8 294.17,-195.26 300.84,-197.39"/>
</a>
</g>
</g>
<!-- Node24&#45;&gt;Node9 -->
<g id="edge35_Node000024_Node000009" class="edge">
<title>Node24&#45;&gt;Node9</title>
<g id="a_edge35_Node000024_Node000009"><a xlink:title=" ">
<path fill="none" stroke="#63b8ff" d="M559.28,-165.34C570.97,-157.46 588.18,-145.86 602.04,-136.52"/>
<polygon fill="#63b8ff" stroke="#63b8ff" points="603.82,-139.54 610.15,-131.05 599.9,-133.74 603.82,-139.54"/>
</a>
</g>
</g>
<!-- Node24&#45;&gt;Node17 -->
<g id="edge34_Node000024_Node000017" class="edge">
<title>Node24&#45;&gt;Node17</title>
<g id="a_edge34_Node000024_Node000017"><a xlink:title=" ">
<path fill="none" stroke="#63b8ff" d="M573.53,-165.34C600.1,-156.66 640.51,-143.46 670.26,-133.74"/>
<polygon fill="#63b8ff" stroke="#63b8ff" points="671.23,-137.1 679.65,-130.67 669.06,-130.45 671.23,-137.1"/>
</a>
</g>
</g>
<!-- Node25&#45;&gt;Node17 -->
<g id="edge37_Node000025_Node000017" class="edge">
<title>Node25&#45;&gt;Node17</title>
<g id="a_edge37_Node000025_Node000017"><a xlink:title=" ">
<path fill="none" stroke="#63b8ff" d="M708.88,-165.58C708.88,-159.07 708.88,-149.92 708.88,-141.62"/>
<polygon fill="#63b8ff" stroke="#63b8ff" points="712.38,-141.62 708.88,-131.62 705.38,-141.62 712.38,-141.62"/>
</a>
</g>
</g>
<!-- Node26&#45;&gt;Node17 -->
<g id="edge39_Node000026_Node000017" class="edge">
<title>Node26&#45;&gt;Node17</title>
<g id="a_edge39_Node000026_Node000017"><a xlink:title=" ">
<path fill="none" stroke="#63b8ff" d="M616.29,-220.51C620.14,-207.27 628.73,-182.5 642.88,-165.75 653.16,-153.58 667.55,-143.32 680.27,-135.72"/>
<polygon fill="#63b8ff" stroke="#63b8ff" points="681.71,-138.93 688.69,-130.96 678.26,-132.84 681.71,-138.93"/>
</a>
</g>
</g>
</g>
</svg>

<g id="navigator" transform="translate(0 0)" fill="#404254">
  <rect fill="#f2f5e9" fill-opacity="0.5" stroke="#606060" stroke-width=".5" x="0" y="0" width="60" height="60"/>
  <use id="zoomplus" xlink:href="#zoomPlus" x="17" y="9" onmousedown="handleZoom(evt,'in')"/>
  <use id="zoomminus" xlink:href="#zoomMin" x="42" y="9" onmousedown="handleZoom(evt,'out')"/>
  <use id="reset" xlink:href="#resetDef" x="30" y="36" onmousedown="handleReset()"/>
   <use id="arrowup" xlink:href="#arrowUp" x="0" y="0" onmousedown="handlePan(0,-1)"/>
  <use id="arrowright" xlink:href="#arrowRight" x="0" y="0" onmousedown="handlePan(1,0)"/>
  <use id="arrowdown" xlink:href="#arrowDown" x="0" y="0" onmousedown="handlePan(0,1)"/>
  <use id="arrowleft" xlink:href="#arrowLeft" x="0" y="0" onmousedown="handlePan(-1,0)"/>
</g>
<svg viewBox="0 0 15 15" width="100%" height="30px" preserveAspectRatio="xMaxYMin meet">
 <g id="arrow_out" transform="scale(0.3 0.3)">
  <a xlink:href="c_mysql_worker_8cpp__incl_org.svg" target="_base">
   <rect id="button" ry="5" rx="5" y="6" x="6" height="38" width="38"
        fill="#f2f5e9" fill-opacity="0.5" stroke="#606060" stroke-width="1.0"/>
   <path id="arrow"
     d="M 11.500037,31.436501 C 11.940474,20.09759 22.043105,11.32322 32.158766,21.979434 L 37.068811,17.246167 C 37.068811,17.246167 37.088388,32 37.088388,32 L 22.160133,31.978069 C 22.160133,31.978069 26.997745,27.140456 26.997745,27.140456 C 18.528582,18.264221 13.291696,25.230495 11.500037,31.436501 z"
     style="fill:#404040;"/>
  </a>
 </g>
</svg>

<style type='text/css'>
<![CDATA[
[data-mouse-over-selected='false'] { opacity: 0.7; }
[data-mouse-over-selected='true']  { opacity: 1.0; }
]]>
</style>
<script type="application/ecmascript"><![CDATA[
document.addEventListener('DOMContentLoaded', (event) => {
  highlightEdges();
  highlightAdjacentNodes();
});
]]></script>
</svg>
