<?xml version="1.0" encoding="UTF-8" standalone="no"?>
<!DOCTYPE svg PUBLIC "-//W3C//DTD SVG 1.1//EN"
 "http://www.w3.org/Graphics/SVG/1.1/DTD/svg11.dtd">
<!-- Generated by graphviz version 14.1.0 (20251206.1807)
 -->
<!-- Title: src/cMyBinLogParser.cpp Pages: 1 -->
<svg width="136pt" height="193pt"
 viewBox="0.00 0.00 136.00 193.00" xmlns="http://www.w3.org/2000/svg" xmlns:xlink="http://www.w3.org/1999/xlink">

<svg id="main" version="1.1" xmlns="http://www.w3.org/2000/svg" xmlns:xlink="http://www.w3.org/1999/xlink" xml:space="preserve">

<style type="text/css"><![CDATA[
.node, .edge {opacity: 0.7;}
.node.selected, .edge.selected {opacity: 1;}
.edge:hover path { stroke: red; }
.edge:hover polygon { stroke: red; fill: red; }
]]></style>
<script type="application/ecmascript" xlink:href="svg.min.js"/>
<svg id="graph" class="graph">
<g id="graph0" class="graph" transform="scale(1 1) rotate(0) translate(4 189)">
<title>src/cMyBinLogParser.cpp</title>
<!-- Node1 -->
<g id="Node000001" class="node">
<title>Node1</title>
<g id="a_Node000001"><a xlink:title=" ">
<polygon fill="#999999" stroke="#666666" points="127.75,-185 0,-185 0,-165.75 127.75,-165.75 127.75,-185"/>
<text xml:space="preserve" text-anchor="middle" x="63.88" y="-171.5" font-family="Helvetica,sans-Serif" font-size="10.00">src/cMyBinLogParser.cpp</text>
</a>
</g>
</g>
<!-- Node2 -->
<g id="Node000002" class="node">
<title>Node2</title>
<g id="a_Node000002"><a xlink:href="c_my_bin_log_parser_8hpp.html" target="_top" xlink:title=" ">
<polygon fill="white" stroke="#666666" points="119.5,-129.75 8.25,-129.75 8.25,-110.5 119.5,-110.5 119.5,-129.75"/>
<text xml:space="preserve" text-anchor="middle" x="63.88" y="-116.25" font-family="Helvetica,sans-Serif" font-size="10.00">cMyBinLogParser.hpp</text>
</a>
</g>
</g>
<!-- Node1&#45;&gt;Node2 -->
<g id="edge1_Node000001_Node000002" class="edge">
<title>Node1&#45;&gt;Node2</title>
<g id="a_edge1_Node000001_Node000002"><a xlink:title=" ">
<path fill="none" stroke="#63b8ff" d="M63.88,-165.58C63.88,-159.07 63.88,-149.92 63.88,-141.62"/>
<polygon fill="#63b8ff" stroke="#63b8ff" points="67.38,-141.62 63.88,-131.62 60.38,-141.62 67.38,-141.62"/>
</a>
</g>
</g>
<!-- Node3 -->
<g id="Node000003" class="node">
<title>Node3</title>
<g id="a_Node000003"><a xlink:href="c_infile_parser_8hpp.html" target="_top" xlink:title=" ">
<polygon fill="white" stroke="#666666" points="108.25,-74.5 19.5,-74.5 19.5,-55.25 108.25,-55.25 108.25,-74.5"/>
<text xml:space="preserve" text-anchor="middle" x="63.88" y="-61" font-family="Helvetica,sans-Serif" font-size="10.00">cInfileParser.hpp</text>
</a>
</g>
</g>
<!-- Node2&#45;&gt;Node3 -->
<g id="edge2_Node000002_Node000003" class="edge">
<title>Node2&#45;&gt;Node3</title>
<g id="a_edge2_Node000002_Node000003"><a xlink:title=" ">
<path fill="none" stroke="#63b8ff" d="M63.88,-110.33C63.88,-103.82 63.88,-94.67 63.88,-86.37"/>
<polygon fill="#63b8ff" stroke="#63b8ff" points="67.38,-86.37 63.88,-76.37 60.38,-86.37 67.38,-86.37"/>
</a>
</g>
</g>
<!-- Node4 -->
<g id="Node000004" class="node">
<title>Node4</title>
<g id="a_Node000004"><a xlink:title=" ">
<polygon fill="#e0e0e0" stroke="#999999" points="57.38,-19.25 8.38,-19.25 8.38,0 57.38,0 57.38,-19.25"/>
<text xml:space="preserve" text-anchor="middle" x="32.88" y="-5.75" font-family="Helvetica,sans-Serif" font-size="10.00">fstream</text>
</a>
</g>
</g>
<!-- Node3&#45;&gt;Node4 -->
<g id="edge3_Node000003_Node000004" class="edge">
<title>Node3&#45;&gt;Node4</title>
<g id="a_edge3_Node000003_Node000004"><a xlink:title=" ">
<path fill="none" stroke="#63b8ff" d="M58.76,-55.08C54.7,-48.11 48.88,-38.12 43.79,-29.37"/>
<polygon fill="#63b8ff" stroke="#63b8ff" points="46.92,-27.8 38.87,-20.92 40.87,-31.32 46.92,-27.8"/>
</a>
</g>
</g>
<!-- Node5 -->
<g id="Node000005" class="node">
<title>Node5</title>
<g id="a_Node000005"><a xlink:title=" ">
<polygon fill="#e0e0e0" stroke="#999999" points="115.88,-19.25 75.88,-19.25 75.88,0 115.88,0 115.88,-19.25"/>
<text xml:space="preserve" text-anchor="middle" x="95.88" y="-5.75" font-family="Helvetica,sans-Serif" font-size="10.00">string</text>
</a>
</g>
</g>
<!-- Node3&#45;&gt;Node5 -->
<g id="edge4_Node000003_Node000005" class="edge">
<title>Node3&#45;&gt;Node5</title>
<g id="a_edge4_Node000003_Node000005"><a xlink:title=" ">
<path fill="none" stroke="#63b8ff" d="M69.16,-55.08C73.35,-48.11 79.35,-38.12 84.61,-29.37"/>
<polygon fill="#63b8ff" stroke="#63b8ff" points="87.55,-31.28 89.7,-20.91 81.55,-27.68 87.55,-31.28"/>
</a>
</g>
</g>
</g>
</svg>
</svg>

<style type='text/css'>
<![CDATA[
[data-mouse-over-selected='false'] { opacity: 0.7; }
[data-mouse-over-selected='true']  { opacity: 1.0; }
]]>
</style>
<script type="application/ecmascript"><![CDATA[
document.addEventListener('DOMContentLoaded', (event) => {
  highlightEdges();
  highlightAdjacentNodes();
});
]]></script>
</svg>
