<?xml version="1.0" encoding="UTF-8" standalone="no"?>
<!DOCTYPE svg PUBLIC "-//W3C//DTD SVG 1.1//EN"
 "http://www.w3.org/Graphics/SVG/1.1/DTD/svg11.dtd">
<!-- Generated by graphviz version 14.1.0 (20251206.1807)
 -->
<!-- Title: src/cPgsqlWorker.hpp Pages: 1 -->
<svg width="749pt" height="248pt"
 viewBox="0.00 0.00 749.00 248.00" xmlns="http://www.w3.org/2000/svg" xmlns:xlink="http://www.w3.org/1999/xlink">
<g id="graph0" class="graph" transform="scale(1 1) rotate(0) translate(4 244.25)">
<title>src/cPgsqlWorker.hpp</title>
<!-- Node1 -->
<g id="Node000001" class="node">
<title>Node1</title>
<g id="a_Node000001"><a xlink:title=" ">
<polygon fill="#999999" stroke="#666666" points="479,-240.25 367.75,-240.25 367.75,-221 479,-221 479,-240.25"/>
<text xml:space="preserve" text-anchor="middle" x="423.38" y="-226.75" font-family="Helvetica,sans-Serif" font-size="10.00">src/cPgsqlWorker.hpp</text>
</a>
</g>
</g>
<!-- Node2 -->
<g id="Node000002" class="node">
<title>Node2</title>
<g id="a_Node000002"><a xlink:href="c_db_worker_8hpp.html" target="_top" xlink:title=" ">
<polygon fill="white" stroke="#666666" points="464.75,-185 382,-185 382,-165.75 464.75,-165.75 464.75,-185"/>
<text xml:space="preserve" text-anchor="middle" x="423.38" y="-171.5" font-family="Helvetica,sans-Serif" font-size="10.00">cDbWorker.hpp</text>
</a>
</g>
</g>
<!-- Node1&#45;&gt;Node2 -->
<g id="edge1_Node000001_Node000002" class="edge">
<title>Node1&#45;&gt;Node2</title>
<g id="a_edge1_Node000001_Node000002"><a xlink:title=" ">
<path fill="none" stroke="#63b8ff" d="M423.38,-220.83C423.38,-214.32 423.38,-205.17 423.38,-196.87"/>
<polygon fill="#63b8ff" stroke="#63b8ff" points="426.88,-196.87 423.38,-186.87 419.88,-196.87 426.88,-196.87"/>
</a>
</g>
</g>
<!-- Node3 -->
<g id="Node000003" class="node">
<title>Node3</title>
<g id="a_Node000003"><a xlink:title=" ">
<polygon fill="#e0e0e0" stroke="#999999" points="239.38,-19.25 199.38,-19.25 199.38,0 239.38,0 239.38,-19.25"/>
<text xml:space="preserve" text-anchor="middle" x="219.38" y="-5.75" font-family="Helvetica,sans-Serif" font-size="10.00">string</text>
</a>
</g>
</g>
<!-- Node2&#45;&gt;Node3 -->
<g id="edge2_Node000002_Node000003" class="edge">
<title>Node2&#45;&gt;Node3</title>
<g id="a_edge2_Node000002_Node000003"><a xlink:title=" ">
<path fill="none" stroke="#63b8ff" d="M381.71,-170.05C339.07,-164.55 271.57,-152.86 217.38,-129.75 176.95,-112.51 156.02,-113.3 135.38,-74.5 121.41,-48.25 158.9,-29.62 188.22,-19.49"/>
<polygon fill="#63b8ff" stroke="#63b8ff" points="189.06,-22.9 197.5,-16.49 186.91,-16.24 189.06,-22.9"/>
</a>
</g>
</g>
<!-- Node4 -->
<g id="Node000004" class="node">
<title>Node4</title>
<g id="a_Node000004"><a xlink:title=" ">
<polygon fill="#e0e0e0" stroke="#999999" points="196,-74.5 144.75,-74.5 144.75,-55.25 196,-55.25 196,-74.5"/>
<text xml:space="preserve" text-anchor="middle" x="170.38" y="-61" font-family="Helvetica,sans-Serif" font-size="10.00">memory</text>
</a>
</g>
</g>
<!-- Node2&#45;&gt;Node4 -->
<g id="edge3_Node000002_Node000004" class="edge">
<title>Node2&#45;&gt;Node4</title>
<g id="a_edge3_Node000002_Node000004"><a xlink:title=" ">
<path fill="none" stroke="#63b8ff" d="M381.53,-168.8C345.13,-162.77 291.73,-151.03 249.38,-129.75 225.13,-117.57 201.5,-96.97 186.5,-82.46"/>
<polygon fill="#63b8ff" stroke="#63b8ff" points="189.36,-80.37 179.8,-75.8 184.42,-85.33 189.36,-80.37"/>
</a>
</g>
</g>
<!-- Node5 -->
<g id="Node000005" class="node">
<title>Node5</title>
<g id="a_Node000005"><a xlink:title=" ">
<polygon fill="#e0e0e0" stroke="#999999" points="549.88,-129.75 506.88,-129.75 506.88,-110.5 549.88,-110.5 549.88,-129.75"/>
<text xml:space="preserve" text-anchor="middle" x="528.38" y="-116.25" font-family="Helvetica,sans-Serif" font-size="10.00">vector</text>
</a>
</g>
</g>
<!-- Node2&#45;&gt;Node5 -->
<g id="edge4_Node000002_Node000005" class="edge">
<title>Node2&#45;&gt;Node5</title>
<g id="a_edge4_Node000002_Node000005"><a xlink:title=" ">
<path fill="none" stroke="#63b8ff" d="M441.19,-165.34C457.4,-157.12 481.61,-144.84 500.41,-135.31"/>
<polygon fill="#63b8ff" stroke="#63b8ff" points="501.79,-138.53 509.13,-130.89 498.62,-132.29 501.79,-138.53"/>
</a>
</g>
</g>
<!-- Node6 -->
<g id="Node000006" class="node">
<title>Node6</title>
<g id="a_Node000006"><a xlink:title=" ">
<polygon fill="#e0e0e0" stroke="#999999" points="610.88,-129.75 567.88,-129.75 567.88,-110.5 610.88,-110.5 610.88,-129.75"/>
<text xml:space="preserve" text-anchor="middle" x="589.38" y="-116.25" font-family="Helvetica,sans-Serif" font-size="10.00">thread</text>
</a>
</g>
</g>
<!-- Node2&#45;&gt;Node6 -->
<g id="edge5_Node000002_Node000006" class="edge">
<title>Node2&#45;&gt;Node6</title>
<g id="a_edge5_Node000002_Node000006"><a xlink:title=" ">
<path fill="none" stroke="#63b8ff" d="M451.53,-165.34C480.7,-155.99 526.21,-141.39 556.88,-131.55"/>
<polygon fill="#63b8ff" stroke="#63b8ff" points="557.56,-135.01 566.01,-128.62 555.42,-128.34 557.56,-135.01"/>
</a>
</g>
</g>
<!-- Node7 -->
<g id="Node000007" class="node">
<title>Node7</title>
<g id="a_Node000007"><a xlink:title=" ">
<polygon fill="#e0e0e0" stroke="#999999" points="674,-129.75 628.75,-129.75 628.75,-110.5 674,-110.5 674,-129.75"/>
<text xml:space="preserve" text-anchor="middle" x="651.38" y="-116.25" font-family="Helvetica,sans-Serif" font-size="10.00">atomic</text>
</a>
</g>
</g>
<!-- Node2&#45;&gt;Node7 -->
<g id="edge6_Node000002_Node000007" class="edge">
<title>Node2&#45;&gt;Node7</title>
<g id="a_edge6_Node000002_Node000007"><a xlink:title=" ">
<path fill="none" stroke="#63b8ff" d="M465.02,-165.56C502.57,-157.47 559.56,-144.86 617.23,-130.46"/>
<polygon fill="#63b8ff" stroke="#63b8ff" points="618.07,-133.86 626.92,-128.02 616.37,-127.07 618.07,-133.86"/>
</a>
</g>
</g>
<!-- Node8 -->
<g id="Node000008" class="node">
<title>Node8</title>
<g id="a_Node000008"><a xlink:title=" ">
<polygon fill="#e0e0e0" stroke="#999999" points="740.5,-129.75 692.25,-129.75 692.25,-110.5 740.5,-110.5 740.5,-129.75"/>
<text xml:space="preserve" text-anchor="middle" x="716.38" y="-116.25" font-family="Helvetica,sans-Serif" font-size="10.00">random</text>
</a>
</g>
</g>
<!-- Node2&#45;&gt;Node8 -->
<g id="edge7_Node000002_Node000008" class="edge">
<title>Node2&#45;&gt;Node8</title>
<g id="a_edge7_Node000002_Node000008"><a xlink:title=" ">
<path fill="none" stroke="#63b8ff" d="M465.01,-168.35C514.27,-160.98 598.96,-147.54 680.68,-130.18"/>
<polygon fill="#63b8ff" stroke="#63b8ff" points="681.4,-133.61 690.44,-128.08 679.93,-126.76 681.4,-133.61"/>
</a>
</g>
</g>
<!-- Node9 -->
<g id="Node000009" class="node">
<title>Node9</title>
<g id="a_Node000009"><a xlink:href="c_database_8hpp.html" target="_top" xlink:title=" ">
<polygon fill="white" stroke="#666666" points="340.38,-129.75 258.38,-129.75 258.38,-110.5 340.38,-110.5 340.38,-129.75"/>
<text xml:space="preserve" text-anchor="middle" x="299.38" y="-116.25" font-family="Helvetica,sans-Serif" font-size="10.00">cDatabase.hpp</text>
</a>
</g>
</g>
<!-- Node2&#45;&gt;Node9 -->
<g id="edge8_Node000002_Node000009" class="edge">
<title>Node2&#45;&gt;Node9</title>
<g id="a_edge8_Node000002_Node000009"><a xlink:title=" ">
<path fill="none" stroke="#63b8ff" d="M402.34,-165.34C382.74,-156.93 353.27,-144.27 330.87,-134.65"/>
<polygon fill="#63b8ff" stroke="#63b8ff" points="332.47,-131.53 321.9,-130.8 329.71,-137.96 332.47,-131.53"/>
</a>
</g>
</g>
<!-- Node12 -->
<g id="Node000012" class="node">
<title>Node12</title>
<g id="a_Node000012"><a xlink:href="s_worker_params_8hpp.html" target="_top" xlink:title=" ">
<polygon fill="white" stroke="#666666" points="444.62,-74.5 340.12,-74.5 340.12,-55.25 444.62,-55.25 444.62,-74.5"/>
<text xml:space="preserve" text-anchor="middle" x="392.38" y="-61" font-family="Helvetica,sans-Serif" font-size="10.00">sWorkerParams.hpp</text>
</a>
</g>
</g>
<!-- Node2&#45;&gt;Node12 -->
<g id="edge22_Node000002_Node000012" class="edge">
<title>Node2&#45;&gt;Node12</title>
<g id="a_edge22_Node000002_Node000012"><a xlink:title=" ">
<path fill="none" stroke="#63b8ff" d="M420.84,-165.5C415.89,-148.17 404.83,-109.48 398.05,-85.74"/>
<polygon fill="#63b8ff" stroke="#63b8ff" points="401.48,-84.99 395.36,-76.33 394.74,-86.91 401.48,-84.99"/>
</a>
</g>
</g>
<!-- Node14 -->
<g id="Node000014" class="node">
<title>Node14</title>
<g id="a_Node000014"><a xlink:href="c_infile_parser_8hpp.html" target="_top" xlink:title=" ">
<polygon fill="white" stroke="#666666" points="88.75,-129.75 0,-129.75 0,-110.5 88.75,-110.5 88.75,-129.75"/>
<text xml:space="preserve" text-anchor="middle" x="44.38" y="-116.25" font-family="Helvetica,sans-Serif" font-size="10.00">cInfileParser.hpp</text>
</a>
</g>
</g>
<!-- Node2&#45;&gt;Node14 -->
<g id="edge15_Node000002_Node000014" class="edge">
<title>Node2&#45;&gt;Node14</title>
<g id="a_edge15_Node000002_Node000014"><a xlink:title=" ">
<path fill="none" stroke="#63b8ff" d="M381.55,-168.69C320.27,-160.33 202.48,-144.15 102.38,-129.75 101.7,-129.65 101.02,-129.55 100.33,-129.46"/>
<polygon fill="#63b8ff" stroke="#63b8ff" points="100.91,-126 90.51,-128.03 99.91,-132.93 100.91,-126"/>
</a>
</g>
</g>
<!-- Node15 -->
<g id="Node000015" class="node">
<title>Node15</title>
<g id="a_Node000015"><a xlink:href="c_logger_8hpp.html" target="_top" xlink:title=" ">
<polygon fill="white" stroke="#666666" points="488.62,-129.75 420.12,-129.75 420.12,-110.5 488.62,-110.5 488.62,-129.75"/>
<text xml:space="preserve" text-anchor="middle" x="454.38" y="-116.25" font-family="Helvetica,sans-Serif" font-size="10.00">cLogger.hpp</text>
</a>
</g>
</g>
<!-- Node2&#45;&gt;Node15 -->
<g id="edge17_Node000002_Node000015" class="edge">
<title>Node2&#45;&gt;Node15</title>
<g id="a_edge17_Node000002_Node000015"><a xlink:title=" ">
<path fill="none" stroke="#63b8ff" d="M428.49,-165.58C432.55,-158.61 438.37,-148.62 443.46,-139.87"/>
<polygon fill="#63b8ff" stroke="#63b8ff" points="446.38,-141.82 448.38,-131.42 440.33,-138.3 446.38,-141.82"/>
</a>
</g>
</g>
<!-- Node9&#45;&gt;Node4 -->
<g id="edge10_Node000009_Node000004" class="edge">
<title>Node9&#45;&gt;Node4</title>
<g id="a_edge10_Node000009_Node000004"><a xlink:title=" ">
<path fill="none" stroke="#63b8ff" d="M277.49,-110.09C257.01,-101.64 226.16,-88.9 202.82,-79.27"/>
<polygon fill="#63b8ff" stroke="#63b8ff" points="204.34,-76.11 193.76,-75.53 201.67,-82.58 204.34,-76.11"/>
</a>
</g>
</g>
<!-- Node10 -->
<g id="Node000010" class="node">
<title>Node10</title>
<g id="a_Node000010"><a xlink:title=" ">
<polygon fill="#e0e0e0" stroke="#999999" points="259,-74.5 213.75,-74.5 213.75,-55.25 259,-55.25 259,-74.5"/>
<text xml:space="preserve" text-anchor="middle" x="236.38" y="-61" font-family="Helvetica,sans-Serif" font-size="10.00">cstdint</text>
</a>
</g>
</g>
<!-- Node9&#45;&gt;Node10 -->
<g id="edge9_Node000009_Node000010" class="edge">
<title>Node9&#45;&gt;Node10</title>
<g id="a_edge9_Node000009_Node000010"><a xlink:title=" ">
<path fill="none" stroke="#63b8ff" d="M288.69,-110.09C279.67,-102.47 266.54,-91.37 255.69,-82.2"/>
<polygon fill="#63b8ff" stroke="#63b8ff" points="257.96,-79.53 248.06,-75.75 253.44,-84.88 257.96,-79.53"/>
</a>
</g>
</g>
<!-- Node11 -->
<g id="Node000011" class="node">
<title>Node11</title>
<g id="a_Node000011"><a xlink:title=" ">
<polygon fill="#e0e0e0" stroke="#999999" points="322,-74.5 276.75,-74.5 276.75,-55.25 322,-55.25 322,-74.5"/>
<text xml:space="preserve" text-anchor="middle" x="299.38" y="-61" font-family="Helvetica,sans-Serif" font-size="10.00">chrono</text>
</a>
</g>
</g>
<!-- Node9&#45;&gt;Node11 -->
<g id="edge11_Node000009_Node000011" class="edge">
<title>Node9&#45;&gt;Node11</title>
<g id="a_edge11_Node000009_Node000011"><a xlink:title=" ">
<path fill="none" stroke="#63b8ff" d="M299.38,-110.33C299.38,-103.82 299.38,-94.67 299.38,-86.37"/>
<polygon fill="#63b8ff" stroke="#63b8ff" points="302.88,-86.37 299.38,-76.37 295.88,-86.37 302.88,-86.37"/>
</a>
</g>
</g>
<!-- Node9&#45;&gt;Node12 -->
<g id="edge12_Node000009_Node000012" class="edge">
<title>Node9&#45;&gt;Node12</title>
<g id="a_edge12_Node000009_Node000012"><a xlink:title=" ">
<path fill="none" stroke="#63b8ff" d="M315.15,-110.09C329.31,-101.98 350.36,-89.93 366.9,-80.46"/>
<polygon fill="#63b8ff" stroke="#63b8ff" points="368.27,-83.71 375.21,-75.7 364.79,-77.64 368.27,-83.71"/>
</a>
</g>
</g>
<!-- Node12&#45;&gt;Node3 -->
<g id="edge13_Node000012_Node000003" class="edge">
<title>Node12&#45;&gt;Node3</title>
<g id="a_edge13_Node000012_Node000003"><a xlink:title=" ">
<path fill="none" stroke="#63b8ff" d="M363.03,-54.84C331.78,-45.22 282.51,-30.06 250.57,-20.23"/>
<polygon fill="#63b8ff" stroke="#63b8ff" points="251.68,-16.91 241.1,-17.31 249.62,-23.6 251.68,-16.91"/>
</a>
</g>
</g>
<!-- Node13 -->
<g id="Node000013" class="node">
<title>Node13</title>
<g id="a_Node000013"><a xlink:href="e_types_8hpp.html" target="_top" xlink:title=" ">
<polygon fill="white" stroke="#666666" points="425.5,-19.25 359.25,-19.25 359.25,0 425.5,0 425.5,-19.25"/>
<text xml:space="preserve" text-anchor="middle" x="392.38" y="-5.75" font-family="Helvetica,sans-Serif" font-size="10.00">eTypes.hpp</text>
</a>
</g>
</g>
<!-- Node12&#45;&gt;Node13 -->
<g id="edge14_Node000012_Node000013" class="edge">
<title>Node12&#45;&gt;Node13</title>
<g id="a_edge14_Node000012_Node000013"><a xlink:title=" ">
<path fill="none" stroke="#63b8ff" d="M392.38,-55.08C392.38,-48.57 392.38,-39.42 392.38,-31.12"/>
<polygon fill="#63b8ff" stroke="#63b8ff" points="395.88,-31.12 392.38,-21.12 388.88,-31.12 395.88,-31.12"/>
</a>
</g>
</g>
<!-- Node14&#45;&gt;Node3 -->
<g id="edge16_Node000014_Node000003" class="edge">
<title>Node14&#45;&gt;Node3</title>
<g id="a_edge16_Node000014_Node000003"><a xlink:title=" ">
<path fill="none" stroke="#63b8ff" d="M50.47,-110.05C60.04,-96.42 79.86,-70.62 102.38,-55.25 128.73,-37.26 163.32,-25.23 188.04,-18.24"/>
<polygon fill="#63b8ff" stroke="#63b8ff" points="188.76,-21.67 197.51,-15.69 186.94,-14.91 188.76,-21.67"/>
</a>
</g>
</g>
<!-- Node15&#45;&gt;Node3 -->
<g id="edge18_Node000015_Node000003" class="edge">
<title>Node15&#45;&gt;Node3</title>
<g id="a_edge18_Node000015_Node000003"><a xlink:title=" ">
<path fill="none" stroke="#63b8ff" d="M457.43,-110.07C461.39,-96.47 466.36,-70.7 453.38,-55.25 427.79,-24.81 308.58,-14.92 250.86,-11.88"/>
<polygon fill="#63b8ff" stroke="#63b8ff" points="251.2,-8.4 241.04,-11.41 250.86,-15.39 251.2,-8.4"/>
</a>
</g>
</g>
<!-- Node16 -->
<g id="Node000016" class="node">
<title>Node16</title>
<g id="a_Node000016"><a xlink:title=" ">
<polygon fill="#e0e0e0" stroke="#999999" points="549.88,-74.5 500.88,-74.5 500.88,-55.25 549.88,-55.25 549.88,-74.5"/>
<text xml:space="preserve" text-anchor="middle" x="525.38" y="-61" font-family="Helvetica,sans-Serif" font-size="10.00">fstream</text>
</a>
</g>
</g>
<!-- Node15&#45;&gt;Node16 -->
<g id="edge19_Node000015_Node000016" class="edge">
<title>Node15&#45;&gt;Node16</title>
<g id="a_edge19_Node000015_Node000016"><a xlink:title=" ">
<path fill="none" stroke="#63b8ff" d="M466.42,-110.09C476.78,-102.32 491.98,-90.92 504.34,-81.65"/>
<polygon fill="#63b8ff" stroke="#63b8ff" points="506.4,-84.48 512.3,-75.68 502.2,-78.88 506.4,-84.48"/>
</a>
</g>
</g>
<!-- Node17 -->
<g id="Node000017" class="node">
<title>Node17</title>
<g id="a_Node000017"><a xlink:title=" ">
<polygon fill="#e0e0e0" stroke="#999999" points="613,-74.5 567.75,-74.5 567.75,-55.25 613,-55.25 613,-74.5"/>
<text xml:space="preserve" text-anchor="middle" x="590.38" y="-61" font-family="Helvetica,sans-Serif" font-size="10.00">cstring</text>
</a>
</g>
</g>
<!-- Node15&#45;&gt;Node17 -->
<g id="edge20_Node000015_Node000017" class="edge">
<title>Node15&#45;&gt;Node17</title>
<g id="a_edge20_Node000015_Node000017"><a xlink:title=" ">
<path fill="none" stroke="#63b8ff" d="M477.45,-110.09C499.26,-101.55 532.25,-88.63 556.95,-78.96"/>
<polygon fill="#63b8ff" stroke="#63b8ff" points="558.2,-82.23 566.24,-75.33 555.65,-75.71 558.2,-82.23"/>
</a>
</g>
</g>
<!-- Node18 -->
<g id="Node000018" class="node">
<title>Node18</title>
<g id="a_Node000018"><a xlink:title=" ">
<polygon fill="#e0e0e0" stroke="#999999" points="673.88,-74.5 630.88,-74.5 630.88,-55.25 673.88,-55.25 673.88,-74.5"/>
<text xml:space="preserve" text-anchor="middle" x="652.38" y="-61" font-family="Helvetica,sans-Serif" font-size="10.00">cerrno</text>
</a>
</g>
</g>
<!-- Node15&#45;&gt;Node18 -->
<g id="edge21_Node000015_Node000018" class="edge">
<title>Node15&#45;&gt;Node18</title>
<g id="a_edge21_Node000015_Node000018"><a xlink:title=" ">
<path fill="none" stroke="#63b8ff" d="M488.86,-110.18C520.53,-101.92 569.06,-89.15 619.34,-75.3"/>
<polygon fill="#63b8ff" stroke="#63b8ff" points="620.27,-78.68 628.98,-72.64 618.4,-71.93 620.27,-78.68"/>
</a>
</g>
</g>
</g>
</svg>
