<?xml version="1.0" encoding="UTF-8" standalone="no"?>
<!DOCTYPE svg PUBLIC "-//W3C//DTD SVG 1.1//EN"
 "http://www.w3.org/Graphics/SVG/1.1/DTD/svg11.dtd">
<!-- Generated by graphviz version 14.1.0 (20251206.1807)
 -->
<!-- Title: PQuery::logWorkerDetails Pages: 1 -->
<svg width="284pt" height="64pt"
 viewBox="0.00 0.00 284.00 64.00" xmlns="http://www.w3.org/2000/svg" xmlns:xlink="http://www.w3.org/1999/xlink">
<g id="graph0" class="graph" transform="scale(1 1) rotate(0) translate(4 60.25)">
<title>PQuery::logWorkerDetails</title>
<!-- Node1 -->
<g id="Node000001" class="node">
<title>Node1</title>
<g id="a_Node000001"><a xlink:title=" ">
<polygon fill="#999999" stroke="#666666" points="129.25,-37.25 0,-37.25 0,-18 129.25,-18 129.25,-37.25"/>
<text xml:space="preserve" text-anchor="middle" x="64.62" y="-23.75" font-family="Helvetica,sans-Serif" font-size="10.00">PQuery::logWorkerDetails</text>
</a>
</g>
</g>
<!-- Node2 -->
<g id="Node000002" class="node">
<title>Node2</title>
<g id="a_Node000002"><a xlink:href="class_p_query.html#a89e2b97a238687621ce94d4af211be11" target="_top" xlink:title=" ">
<polygon fill="white" stroke="#666666" points="270.88,-56.25 170.12,-56.25 170.12,-37 270.88,-37 270.88,-56.25"/>
<text xml:space="preserve" text-anchor="middle" x="220.5" y="-42.75" font-family="Helvetica,sans-Serif" font-size="10.00">PQuery::dbtype_str</text>
</a>
</g>
</g>
<!-- Node1&#45;&gt;Node2 -->
<g id="edge1_Node000001_Node000002" class="edge">
<title>Node1&#45;&gt;Node2</title>
<g id="a_edge1_Node000001_Node000002"><a xlink:title=" ">
<path fill="none" stroke="#63b8ff" d="M129.55,-35.52C139.28,-36.72 149.3,-37.96 158.96,-39.15"/>
<polygon fill="#63b8ff" stroke="#63b8ff" points="158.23,-42.59 168.59,-40.34 159.09,-35.64 158.23,-42.59"/>
</a>
</g>
</g>
<!-- Node3 -->
<g id="Node000003" class="node">
<title>Node3</title>
<g id="a_Node000003"><a xlink:href="class_p_query.html#aaf554933bcaae8d96624121e75bece2a" target="_top" xlink:title=" ">
<polygon fill="white" stroke="#666666" points="275.75,-19.25 165.25,-19.25 165.25,0 275.75,0 275.75,-19.25"/>
<text xml:space="preserve" text-anchor="middle" x="220.5" y="-5.75" font-family="Helvetica,sans-Serif" font-size="10.00">PQuery::infiletype_str</text>
</a>
</g>
</g>
<!-- Node1&#45;&gt;Node3 -->
<g id="edge2_Node000001_Node000003" class="edge">
<title>Node1&#45;&gt;Node3</title>
<g id="a_edge2_Node000001_Node000003"><a xlink:title=" ">
<path fill="none" stroke="#63b8ff" d="M129.55,-20.15C137.51,-19.22 145.68,-18.26 153.67,-17.33"/>
<polygon fill="#63b8ff" stroke="#63b8ff" points="153.81,-20.83 163.33,-16.2 152.99,-13.88 153.81,-20.83"/>
</a>
</g>
</g>
</g>
</svg>
