<?xml version="1.0" encoding="UTF-8" standalone="no"?>
<!DOCTYPE svg PUBLIC "-//W3C//DTD SVG 1.1//EN"
 "http://www.w3.org/Graphics/SVG/1.1/DTD/svg11.dtd">
<!-- Generated by graphviz version 14.1.0 (20251206.1807)
 -->
<!-- Title: DbWorker::workerThread Pages: 1 -->
<!--zoomable 501 -->

<svg id="main" version="1.1" xmlns="http://www.w3.org/2000/svg" xmlns:xlink="http://www.w3.org/1999/xlink" xml:space="preserve" onload="init(evt)">

<style type="text/css"><![CDATA[
.node, .edge {opacity: 0.7;}
.node.selected, .edge.selected {opacity: 1;}
.edge:hover path { stroke: red; }
.edge:hover polygon { stroke: red; fill: red; }
]]></style>

<defs>
  <circle id="rim" cx="0" cy="0" r="7"/>
  <circle id="rim2" cx="0" cy="0" r="3.5"/>
  <g id="zoomPlus">
    <use xlink:href="#rim" fill="#404040"><set attributeName="fill" to="#808080" begin="zoomplus.mouseover" end="zoomplus.mouseout"/></use>
    <path d="M-4,0h8M0,-4v8" fill="none" stroke="white" stroke-width="1.5" pointer-events="none"/>
  </g>
  <g id="zoomMin">
    <use xlink:href="#rim" fill="#404040"><set attributeName="fill" to="#808080" begin="zoomminus.mouseover" end="zoomminus.mouseout"/></use>
    <path d="M-4,0h8" fill="none" stroke="white" stroke-width="1.5" pointer-events="none"/>
  </g>
  <g id="arrowUp" transform="translate(30 24)">
    <use xlink:href="#rim"/>
    <path pointer-events="none" fill="none" stroke="white" stroke-width="1.5" d="M0,-3.0v7 M-2.5,-0.5L0,-3.0L2.5,-0.5"/>
  </g>
  <g id="arrowRight" transform="rotate(90) translate(36 -43)">
    <use xlink:href="#rim"/>
    <path pointer-events="none" fill="none" stroke="white" stroke-width="1.5" d="M0,-3.0v7 M-2.5,-0.5L0,-3.0L2.5,-0.5"/>
  </g>
  <g id="arrowDown" transform="rotate(180) translate(-30 -48)">
    <use xlink:href="#rim"/>
    <path pointer-events="none" fill="none" stroke="white" stroke-width="1.5" d="M0,-3.0v7 M-2.5,-0.5L0,-3.0L2.5,-0.5"/>
  </g>
  <g id="arrowLeft" transform="rotate(270) translate(-36 17)">
    <use xlink:href="#rim"/>
    <path pointer-events="none" fill="none" stroke="white" stroke-width="1.5" d="M0,-3.0v7 M-2.5,-0.5L0,-3.0L2.5,-0.5"/>
  </g>
  <g id="resetDef">
    <use xlink:href="#rim2" fill="#404040"><set attributeName="fill" to="#808080" begin="reset.mouseover" end="reset.mouseout"/></use>
  </g>
</defs>
<script type="application/ecmascript">
var viewWidth = 515;
var viewHeight = 501;
var sectionId = 'dynsection-5';
</script>
<script type="application/ecmascript" xlink:href="svg.min.js"/>
<svg id="graph" class="graph">
<g id="viewport">
<title>DbWorker::workerThread</title>
<!-- Node1 -->
<g id="Node000001" class="node">
<title>Node1</title>
<g id="a_Node000001"><a xlink:title=" ">
<polygon fill="#999999" stroke="#666666" points="124.75,-247.25 0,-247.25 0,-228 124.75,-228 124.75,-247.25"/>
<text xml:space="preserve" text-anchor="middle" x="62.38" y="-233.75" font-family="Helvetica,sans-Serif" font-size="10.00">DbWorker::workerThread</text>
</a>
</g>
</g>
<!-- Node2 -->
<g id="Node000002" class="node">
<title>Node2</title>
<g id="a_Node000002"><a xlink:href="class_db_worker.html#ae80780dee36e406bd05907738ef608e8" target="_top" xlink:title=" ">
<polygon fill="white" stroke="#666666" points="306.88,-475.25 168.62,-475.25 168.62,-456 306.88,-456 306.88,-475.25"/>
<text xml:space="preserve" text-anchor="middle" x="237.75" y="-461.75" font-family="Helvetica,sans-Serif" font-size="10.00">DbWorker::calculateQueries</text>
</a>
</g>
</g>
<!-- Node1&#45;&gt;Node2 -->
<g id="edge1_Node000001_Node000002" class="edge">
<title>Node1&#45;&gt;Node2</title>
<g id="a_edge1_Node000001_Node000002"><a xlink:title=" ">
<path fill="none" stroke="#63b8ff" d="M64.84,-247.38C70.41,-280.97 93.5,-392.73 160.75,-447.62 161.72,-448.42 162.72,-449.18 163.75,-449.9"/>
<polygon fill="#63b8ff" stroke="#63b8ff" points="161.87,-452.86 172.28,-454.85 165.38,-446.81 161.87,-452.86"/>
</a>
</g>
</g>
<!-- Node5 -->
<g id="Node000005" class="node">
<title>Node5</title>
<g id="a_Node000005"><a xlink:href="class_database.html#a3b5f1e62292b0deac6f713377f697621" target="_top" xlink:title=" ">
<polygon fill="white" stroke="#666666" points="300.88,-438.25 174.62,-438.25 174.62,-419 300.88,-419 300.88,-438.25"/>
<text xml:space="preserve" text-anchor="middle" x="237.75" y="-424.75" font-family="Helvetica,sans-Serif" font-size="10.00">Database::cleanupResult</text>
</a>
</g>
</g>
<!-- Node1&#45;&gt;Node5 -->
<g id="edge4_Node000001_Node000005" class="edge">
<title>Node1&#45;&gt;Node5</title>
<g id="a_edge4_Node000001_Node000005"><a xlink:title=" ">
<path fill="none" stroke="#63b8ff" d="M65.96,-247.73C74.17,-277.72 102.65,-366.88 160.75,-410.62 162.07,-411.62 163.44,-412.56 164.84,-413.45"/>
<polygon fill="#63b8ff" stroke="#63b8ff" points="162.8,-416.32 173.27,-417.9 166.06,-410.14 162.8,-416.32"/>
</a>
</g>
</g>
<!-- Node6 -->
<g id="Node000006" class="node">
<title>Node6</title>
<g id="a_Node000006"><a xlink:href="class_database.html#a048602bd5cc1434de534fdc085f23ca6" target="_top" xlink:title=" ">
<polygon fill="white" stroke="#666666" points="287,-401.25 188.5,-401.25 188.5,-382 287,-382 287,-401.25"/>
<text xml:space="preserve" text-anchor="middle" x="237.75" y="-387.75" font-family="Helvetica,sans-Serif" font-size="10.00">Database::connect</text>
</a>
</g>
</g>
<!-- Node1&#45;&gt;Node6 -->
<g id="edge5_Node000001_Node000006" class="edge">
<title>Node1&#45;&gt;Node6</title>
<g id="a_edge5_Node000001_Node000006"><a xlink:title=" ">
<path fill="none" stroke="#63b8ff" d="M67.54,-247.72C78.61,-273.2 111.32,-340.46 160.75,-373.62 165.89,-377.07 171.61,-379.86 177.54,-382.12"/>
<polygon fill="#63b8ff" stroke="#63b8ff" points="176.33,-385.41 186.93,-385.17 178.5,-378.75 176.33,-385.41"/>
</a>
</g>
</g>
<!-- Node7 -->
<g id="Node000007" class="node">
<title>Node7</title>
<g id="a_Node000007"><a xlink:href="class_db_worker.html#a9bc46ce041705bdd168b5e80878fcb53" target="_top" xlink:title=" ">
<polygon fill="white" stroke="#666666" points="309.12,-364.25 166.38,-364.25 166.38,-345 309.12,-345 309.12,-364.25"/>
<text xml:space="preserve" text-anchor="middle" x="237.75" y="-350.75" font-family="Helvetica,sans-Serif" font-size="10.00">DbWorker::createDbInstance</text>
</a>
</g>
</g>
<!-- Node1&#45;&gt;Node7 -->
<g id="edge6_Node000001_Node000007" class="edge">
<title>Node1&#45;&gt;Node7</title>
<g id="a_edge6_Node000001_Node000007"><a xlink:title=" ">
<path fill="none" stroke="#63b8ff" d="M70.13,-247.57C84.37,-267.72 119.58,-313.43 160.75,-336.62 163.23,-338.02 165.82,-339.31 168.47,-340.5"/>
<polygon fill="#63b8ff" stroke="#63b8ff" points="167,-343.68 177.58,-344.06 169.54,-337.16 167,-343.68"/>
</a>
</g>
</g>
<!-- Node8 -->
<g id="Node000008" class="node">
<title>Node8</title>
<g id="a_Node000008"><a xlink:href="class_db_worker.html#af782e84cd28cdb8d3ba0a86a0528802b" target="_top" xlink:title=" ">
<polygon fill="white" stroke="#666666" points="299.75,-327.25 175.75,-327.25 175.75,-308 299.75,-308 299.75,-327.25"/>
<text xml:space="preserve" text-anchor="middle" x="237.75" y="-313.75" font-family="Helvetica,sans-Serif" font-size="10.00">DbWorker::endDbThread</text>
</a>
</g>
</g>
<!-- Node1&#45;&gt;Node8 -->
<g id="edge7_Node000001_Node000008" class="edge">
<title>Node1&#45;&gt;Node8</title>
<g id="a_edge7_Node000001_Node000008"><a xlink:title=" ">
<path fill="none" stroke="#63b8ff" d="M76.14,-247.75C94.03,-261.47 128.07,-285.82 160.75,-299.62 164.78,-301.33 169,-302.89 173.3,-304.31"/>
<polygon fill="#63b8ff" stroke="#63b8ff" points="172.06,-307.59 182.64,-307.14 174.09,-300.89 172.06,-307.59"/>
</a>
</g>
</g>
<!-- Node9 -->
<g id="Node000009" class="node">
<title>Node9</title>
<g id="a_Node000009"><a xlink:href="class_database.html#a5f69d7c5777d6bcbab448508ddbed590" target="_top" xlink:title=" ">
<polygon fill="white" stroke="#666666" points="307.62,-290.25 167.88,-290.25 167.88,-271 307.62,-271 307.62,-290.25"/>
<text xml:space="preserve" text-anchor="middle" x="237.75" y="-276.75" font-family="Helvetica,sans-Serif" font-size="10.00">Database::getAffectedRows</text>
</a>
</g>
</g>
<!-- Node1&#45;&gt;Node9 -->
<g id="edge8_Node000001_Node000009" class="edge">
<title>Node1&#45;&gt;Node9</title>
<g id="a_edge8_Node000001_Node000009"><a xlink:title=" ">
<path fill="none" stroke="#63b8ff" d="M104.02,-247.71C128.17,-253.7 159.04,-261.35 184.93,-267.77"/>
<polygon fill="#63b8ff" stroke="#63b8ff" points="184.04,-271.16 194.59,-270.17 185.72,-264.36 184.04,-271.16"/>
</a>
</g>
</g>
<!-- Node10 -->
<g id="Node000010" class="node">
<title>Node10</title>
<g id="a_Node000010"><a xlink:href="class_database.html#a0e44a9dc2404005f54298cef291e21a6" target="_top" xlink:title=" ">
<polygon fill="white" stroke="#666666" points="303.88,-252.88 171.62,-252.88 171.62,-222.38 303.88,-222.38 303.88,-252.88"/>
<text xml:space="preserve" text-anchor="start" x="179.62" y="-239.38" font-family="Helvetica,sans-Serif" font-size="10.00">Database::getConsecutive</text>
<text xml:space="preserve" text-anchor="middle" x="237.75" y="-228.12" font-family="Helvetica,sans-Serif" font-size="10.00">Failures</text>
</a>
</g>
</g>
<!-- Node1&#45;&gt;Node10 -->
<g id="edge9_Node000001_Node000010" class="edge">
<title>Node1&#45;&gt;Node10</title>
<g id="a_edge9_Node000001_Node000010"><a xlink:title=" ">
<path fill="none" stroke="#63b8ff" d="M124.99,-237.62C136.23,-237.62 148.09,-237.62 159.71,-237.62"/>
<polygon fill="#63b8ff" stroke="#63b8ff" points="159.71,-241.13 169.71,-237.63 159.71,-234.13 159.71,-241.13"/>
</a>
</g>
</g>
<!-- Node11 -->
<g id="Node000011" class="node">
<title>Node11</title>
<g id="a_Node000011"><a xlink:href="class_database.html#a75ff1788378505ca576824685dd40621" target="_top" xlink:title=" ">
<polygon fill="white" stroke="#666666" points="299.75,-204.25 175.75,-204.25 175.75,-185 299.75,-185 299.75,-204.25"/>
<text xml:space="preserve" text-anchor="middle" x="237.75" y="-190.75" font-family="Helvetica,sans-Serif" font-size="10.00">Database::getErrorString</text>
</a>
</g>
</g>
<!-- Node1&#45;&gt;Node11 -->
<g id="edge10_Node000001_Node000011" class="edge">
<title>Node1&#45;&gt;Node11</title>
<g id="a_edge10_Node000001_Node000011"><a xlink:title=" ">
<path fill="none" stroke="#63b8ff" d="M104.02,-227.54C128.17,-221.55 159.04,-213.9 184.93,-207.48"/>
<polygon fill="#63b8ff" stroke="#63b8ff" points="185.72,-210.89 194.59,-205.08 184.04,-204.09 185.72,-210.89"/>
</a>
</g>
</g>
<!-- Node12 -->
<g id="Node000012" class="node">
<title>Node12</title>
<g id="a_Node000012"><a xlink:href="class_database.html#a56aad8576cd72843c40d7e671c676c95" target="_top" xlink:title=" ">
<polygon fill="white" stroke="#666666" points="314.75,-167.25 160.75,-167.25 160.75,-148 314.75,-148 314.75,-167.25"/>
<text xml:space="preserve" text-anchor="middle" x="237.75" y="-153.75" font-family="Helvetica,sans-Serif" font-size="10.00">Database::getQueryDurationMs</text>
</a>
</g>
</g>
<!-- Node1&#45;&gt;Node12 -->
<g id="edge11_Node000001_Node000012" class="edge">
<title>Node1&#45;&gt;Node12</title>
<g id="a_edge11_Node000001_Node000012"><a xlink:title=" ">
<path fill="none" stroke="#63b8ff" d="M76.14,-227.5C94.03,-213.78 128.07,-189.43 160.75,-175.62 164.78,-173.92 169,-172.36 173.3,-170.94"/>
<polygon fill="#63b8ff" stroke="#63b8ff" points="174.09,-174.36 182.64,-168.11 172.06,-167.66 174.09,-174.36"/>
</a>
</g>
</g>
<!-- Node13 -->
<g id="Node000013" class="node">
<title>Node13</title>
<g id="a_Node000013"><a xlink:href="class_database.html#a1797a7c74502bc4e37119eaf3bf03c3a" target="_top" xlink:title=" ">
<polygon fill="white" stroke="#666666" points="303.88,-130.25 171.62,-130.25 171.62,-111 303.88,-111 303.88,-130.25"/>
<text xml:space="preserve" text-anchor="middle" x="237.75" y="-116.75" font-family="Helvetica,sans-Serif" font-size="10.00">Database::getQueryResult</text>
</a>
</g>
</g>
<!-- Node1&#45;&gt;Node13 -->
<g id="edge12_Node000001_Node000013" class="edge">
<title>Node1&#45;&gt;Node13</title>
<g id="a_edge12_Node000001_Node000013"><a xlink:title=" ">
<path fill="none" stroke="#63b8ff" d="M70.13,-227.68C84.37,-207.53 119.58,-161.82 160.75,-138.62 163.23,-137.23 165.82,-135.94 168.47,-134.75"/>
<polygon fill="#63b8ff" stroke="#63b8ff" points="169.54,-138.09 177.58,-131.19 167,-131.57 169.54,-138.09"/>
</a>
</g>
</g>
<!-- Node14 -->
<g id="Node000014" class="node">
<title>Node14</title>
<g id="a_Node000014"><a xlink:href="class_database.html#aa89c4b5c4f765c9aabea25c62262762d" target="_top" xlink:title=" ">
<polygon fill="white" stroke="#666666" points="309.88,-93.25 165.62,-93.25 165.62,-74 309.88,-74 309.88,-93.25"/>
<text xml:space="preserve" text-anchor="middle" x="237.75" y="-79.75" font-family="Helvetica,sans-Serif" font-size="10.00">Database::getWarningsCount</text>
</a>
</g>
</g>
<!-- Node1&#45;&gt;Node14 -->
<g id="edge13_Node000001_Node000014" class="edge">
<title>Node1&#45;&gt;Node14</title>
<g id="a_edge13_Node000001_Node000014"><a xlink:title=" ">
<path fill="none" stroke="#63b8ff" d="M67.54,-227.53C78.61,-202.05 111.32,-134.79 160.75,-101.62 162.38,-100.53 164.06,-99.51 165.79,-98.55"/>
<polygon fill="#63b8ff" stroke="#63b8ff" points="167.2,-101.75 174.76,-94.32 164.22,-95.42 167.2,-101.75"/>
</a>
</g>
</g>
<!-- Node15 -->
<g id="Node000015" class="node">
<title>Node15</title>
<g id="a_Node000015"><a xlink:href="class_database.html#a50d97545afa4f73d704c4b7d2587850e" target="_top" xlink:title=" ">
<polygon fill="white" stroke="#666666" points="299.38,-56.25 176.12,-56.25 176.12,-37 299.38,-37 299.38,-56.25"/>
<text xml:space="preserve" text-anchor="middle" x="237.75" y="-42.75" font-family="Helvetica,sans-Serif" font-size="10.00">Database::performQuery</text>
</a>
</g>
</g>
<!-- Node1&#45;&gt;Node15 -->
<g id="edge14_Node000001_Node000015" class="edge">
<title>Node1&#45;&gt;Node15</title>
<g id="a_edge14_Node000001_Node000015"><a xlink:title=" ">
<path fill="none" stroke="#63b8ff" d="M65.96,-227.52C74.17,-197.53 102.65,-108.37 160.75,-64.62 162.31,-63.45 163.94,-62.35 165.63,-61.31"/>
<polygon fill="#63b8ff" stroke="#63b8ff" points="167.09,-64.5 174.41,-56.84 163.91,-58.26 167.09,-64.5"/>
</a>
</g>
</g>
<!-- Node17 -->
<g id="Node000017" class="node">
<title>Node17</title>
<g id="a_Node000017"><a xlink:href="class_database.html#a3a6f235a788b0c2b4e505dea3714945f" target="_top" xlink:title=" ">
<polygon fill="white" stroke="#666666" points="314.75,-19.25 160.75,-19.25 160.75,0 314.75,0 314.75,-19.25"/>
<text xml:space="preserve" text-anchor="middle" x="237.75" y="-5.75" font-family="Helvetica,sans-Serif" font-size="10.00">Database::processQueryOutput</text>
</a>
</g>
</g>
<!-- Node1&#45;&gt;Node17 -->
<g id="edge16_Node000001_Node000017" class="edge">
<title>Node1&#45;&gt;Node17</title>
<g id="a_edge16_Node000001_Node000017"><a xlink:title=" ">
<path fill="none" stroke="#63b8ff" d="M64.84,-227.87C70.41,-194.28 93.5,-82.52 160.75,-27.62 161.72,-26.83 162.72,-26.07 163.75,-25.35"/>
<polygon fill="#63b8ff" stroke="#63b8ff" points="165.38,-28.44 172.28,-20.4 161.87,-22.39 165.38,-28.44"/>
</a>
</g>
</g>
<!-- Node3 -->
<g id="Node000003" class="node">
<title>Node3</title>
<g id="a_Node000003"><a xlink:href="class_database.html#af19f3ef4a1346533886742d5dbda081b" target="_top" xlink:title=" ">
<polygon fill="white" stroke="#666666" points="497.62,-493.25 360.12,-493.25 360.12,-474 497.62,-474 497.62,-493.25"/>
<text xml:space="preserve" text-anchor="middle" x="428.88" y="-479.75" font-family="Helvetica,sans-Serif" font-size="10.00">Database::getFailedQueries</text>
</a>
</g>
</g>
<!-- Node2&#45;&gt;Node3 -->
<g id="edge2_Node000002_Node000003" class="edge">
<title>Node2&#45;&gt;Node3</title>
<g id="a_edge2_Node000002_Node000003"><a xlink:title=" ">
<path fill="none" stroke="#63b8ff" d="M307.3,-472.15C320.67,-473.42 334.81,-474.77 348.5,-476.07"/>
<polygon fill="#63b8ff" stroke="#63b8ff" points="348.09,-479.55 358.37,-477.01 348.75,-472.58 348.09,-479.55"/>
</a>
</g>
</g>
<!-- Node4 -->
<g id="Node000004" class="node">
<title>Node4</title>
<g id="a_Node000004"><a xlink:href="class_database.html#aef7b78f508ed81f3e7234c7fef96ac3e" target="_top" xlink:title=" ">
<polygon fill="white" stroke="#666666" points="507,-456.25 350.75,-456.25 350.75,-437 507,-437 507,-456.25"/>
<text xml:space="preserve" text-anchor="middle" x="428.88" y="-442.75" font-family="Helvetica,sans-Serif" font-size="10.00">Database::getPerformedQueries</text>
</a>
</g>
</g>
<!-- Node2&#45;&gt;Node4 -->
<g id="edge3_Node000002_Node000004" class="edge">
<title>Node2&#45;&gt;Node4</title>
<g id="a_edge3_Node000002_Node000004"><a xlink:title=" ">
<path fill="none" stroke="#63b8ff" d="M307.3,-458.74C317.54,-457.71 328.23,-456.64 338.83,-455.57"/>
<polygon fill="#63b8ff" stroke="#63b8ff" points="339.16,-459.06 348.76,-454.57 338.46,-452.09 339.16,-459.06"/>
</a>
</g>
</g>
<!-- Node16 -->
<g id="Node000016" class="node">
<title>Node16</title>
<g id="a_Node000016"><a xlink:href="class_database.html#a473203dfe99974c125c25f25701e7944" target="_top" xlink:title=" ">
<polygon fill="white" stroke="#666666" points="500.62,-56.25 357.12,-56.25 357.12,-37 500.62,-37 500.62,-56.25"/>
<text xml:space="preserve" text-anchor="middle" x="428.88" y="-42.75" font-family="Helvetica,sans-Serif" font-size="10.00">Database::performRealQuery</text>
</a>
</g>
</g>
<!-- Node15&#45;&gt;Node16 -->
<g id="edge15_Node000015_Node000016" class="edge">
<title>Node15&#45;&gt;Node16</title>
<g id="a_edge15_Node000015_Node000016"><a xlink:title=" ">
<path fill="none" stroke="#63b8ff" d="M299.63,-46.62C314.32,-46.62 330.25,-46.62 345.73,-46.62"/>
<polygon fill="#63b8ff" stroke="#63b8ff" points="345.38,-50.13 355.38,-46.63 345.38,-43.13 345.38,-50.13"/>
</a>
</g>
</g>
</g>
</svg>

<g id="navigator" transform="translate(0 0)" fill="#404254">
  <rect fill="#f2f5e9" fill-opacity="0.5" stroke="#606060" stroke-width=".5" x="0" y="0" width="60" height="60"/>
  <use id="zoomplus" xlink:href="#zoomPlus" x="17" y="9" onmousedown="handleZoom(evt,'in')"/>
  <use id="zoomminus" xlink:href="#zoomMin" x="42" y="9" onmousedown="handleZoom(evt,'out')"/>
  <use id="reset" xlink:href="#resetDef" x="30" y="36" onmousedown="handleReset()"/>
   <use id="arrowup" xlink:href="#arrowUp" x="0" y="0" onmousedown="handlePan(0,-1)"/>
  <use id="arrowright" xlink:href="#arrowRight" x="0" y="0" onmousedown="handlePan(1,0)"/>
  <use id="arrowdown" xlink:href="#arrowDown" x="0" y="0" onmousedown="handlePan(0,1)"/>
  <use id="arrowleft" xlink:href="#arrowLeft" x="0" y="0" onmousedown="handlePan(-1,0)"/>
</g>
<svg viewBox="0 0 15 15" width="100%" height="30px" preserveAspectRatio="xMaxYMin meet">
 <g id="arrow_out" transform="scale(0.3 0.3)">
  <a xlink:href="class_db_worker_a1e27223a8dc5627187011040bae986f2_cgraph_org.svg" target="_base">
   <rect id="button" ry="5" rx="5" y="6" x="6" height="38" width="38"
        fill="#f2f5e9" fill-opacity="0.5" stroke="#606060" stroke-width="1.0"/>
   <path id="arrow"
     d="M 11.500037,31.436501 C 11.940474,20.09759 22.043105,11.32322 32.158766,21.979434 L 37.068811,17.246167 C 37.068811,17.246167 37.088388,32 37.088388,32 L 22.160133,31.978069 C 22.160133,31.978069 26.997745,27.140456 26.997745,27.140456 C 18.528582,18.264221 13.291696,25.230495 11.500037,31.436501 z"
     style="fill:#404040;"/>
  </a>
 </g>
</svg>

<style type='text/css'>
<![CDATA[
[data-mouse-over-selected='false'] { opacity: 0.7; }
[data-mouse-over-selected='true']  { opacity: 1.0; }
]]>
</style>
<script type="application/ecmascript"><![CDATA[
document.addEventListener('DOMContentLoaded', (event) => {
  highlightEdges();
  highlightAdjacentNodes();
});
]]></script>
</svg>
