<?xml version="1.0" encoding="UTF-8" standalone="no"?>
<!DOCTYPE svg PUBLIC "-//W3C//DTD SVG 1.1//EN"
 "http://www.w3.org/Graphics/SVG/1.1/DTD/svg11.dtd">
<!-- Generated by graphviz version 14.1.0 (20251206.1807)
 -->
<!-- Title: Logger Pages: 1 -->
<svg width="124pt" height="347pt"
 viewBox="0.00 0.00 124.00 347.00" xmlns="http://www.w3.org/2000/svg" xmlns:xlink="http://www.w3.org/1999/xlink">
<g id="graph0" class="graph" transform="scale(1 1) rotate(0) translate(4 343.25)">
<title>Logger</title>
<!-- Node1 -->
<g id="Node000001" class="node">
<title>Node1</title>
<g id="a_Node000001"><a xlink:title=" ">
<polygon fill="#999999" stroke="#666666" points="80.5,-19.25 35.25,-19.25 35.25,0 80.5,0 80.5,-19.25"/>
<text xml:space="preserve" text-anchor="middle" x="57.88" y="-5.75" font-family="Helvetica,sans-Serif" font-size="10.00">Logger</text>
</a>
</g>
</g>
<!-- Node2 -->
<g id="Node000002" class="node">
<title>Node2</title>
<g id="a_Node000002"><a xlink:title=" ">
<polygon fill="white" stroke="#666666" points="94.75,-91.75 21,-91.75 21,-72.5 94.75,-72.5 94.75,-91.75"/>
<text xml:space="preserve" text-anchor="middle" x="57.88" y="-78.25" font-family="Helvetica,sans-Serif" font-size="10.00">std::ofstream</text>
</a>
</g>
</g>
<!-- Node2&#45;&gt;Node1 -->
<g id="edge1_Node000001_Node000002" class="edge">
<title>Node2&#45;&gt;Node1</title>
<g id="a_edge1_Node000001_Node000002"><a xlink:title=" ">
<path fill="none" stroke="#9a32cd" stroke-dasharray="5,2" d="M57.88,-61.05C57.88,-47.44 57.88,-30.1 57.88,-19.7"/>
<polygon fill="#9a32cd" stroke="#9a32cd" points="54.38,-60.68 57.88,-70.68 61.38,-60.68 54.38,-60.68"/>
</a>
</g>
<text xml:space="preserve" text-anchor="start" x="60.88" y="-42" font-family="Helvetica,sans-Serif" font-size="10.00" fill="grey">logFile</text>
</g>
<!-- Node3 -->
<g id="Node000003" class="node">
<title>Node3</title>
<g id="a_Node000003"><a xlink:title=" ">
<polygon fill="white" stroke="#666666" points="109,-159.25 6.75,-159.25 6.75,-128.75 109,-128.75 109,-159.25"/>
<text xml:space="preserve" text-anchor="start" x="14.75" y="-145.75" font-family="Helvetica,sans-Serif" font-size="10.00">std::basic_ofstream</text>
<text xml:space="preserve" text-anchor="middle" x="57.88" y="-134.5" font-family="Helvetica,sans-Serif" font-size="10.00">&lt; Char &gt;</text>
</a>
</g>
</g>
<!-- Node3&#45;&gt;Node2 -->
<g id="edge2_Node000002_Node000003" class="edge">
<title>Node3&#45;&gt;Node2</title>
<g id="a_edge2_Node000002_Node000003"><a xlink:title=" ">
<path fill="none" stroke="#63b8ff" d="M57.88,-117.27C57.88,-108.29 57.88,-98.79 57.88,-92.1"/>
<polygon fill="#63b8ff" stroke="#63b8ff" points="54.38,-116.99 57.88,-126.99 61.38,-116.99 54.38,-116.99"/>
</a>
</g>
</g>
<!-- Node4 -->
<g id="Node000004" class="node">
<title>Node4</title>
<g id="a_Node000004"><a xlink:title=" ">
<polygon fill="white" stroke="#666666" points="107.5,-226.75 8.25,-226.75 8.25,-196.25 107.5,-196.25 107.5,-226.75"/>
<text xml:space="preserve" text-anchor="start" x="16.25" y="-213.25" font-family="Helvetica,sans-Serif" font-size="10.00">std::basic_ostream</text>
<text xml:space="preserve" text-anchor="middle" x="57.88" y="-202" font-family="Helvetica,sans-Serif" font-size="10.00">&lt; Char &gt;</text>
</a>
</g>
</g>
<!-- Node4&#45;&gt;Node3 -->
<g id="edge3_Node000003_Node000004" class="edge">
<title>Node4&#45;&gt;Node3</title>
<g id="a_edge3_Node000003_Node000004"><a xlink:title=" ">
<path fill="none" stroke="#63b8ff" d="M57.88,-184.59C57.88,-176.05 57.88,-166.87 57.88,-159.5"/>
<polygon fill="#63b8ff" stroke="#63b8ff" points="54.38,-184.45 57.88,-194.45 61.38,-184.45 54.38,-184.45"/>
</a>
</g>
</g>
<!-- Node5 -->
<g id="Node000005" class="node">
<title>Node5</title>
<g id="a_Node000005"><a xlink:title=" ">
<polygon fill="white" stroke="#666666" points="115.75,-283 0,-283 0,-263.75 115.75,-263.75 115.75,-283"/>
<text xml:space="preserve" text-anchor="middle" x="57.88" y="-269.5" font-family="Helvetica,sans-Serif" font-size="10.00">std::basic_ios&lt; Char &gt;</text>
</a>
</g>
</g>
<!-- Node5&#45;&gt;Node4 -->
<g id="edge4_Node000004_Node000005" class="edge">
<title>Node5&#45;&gt;Node4</title>
<g id="a_edge4_Node000004_Node000005"><a xlink:title=" ">
<path fill="none" stroke="#63b8ff" d="M57.88,-251.94C57.88,-243.68 57.88,-234.34 57.88,-226.82"/>
<polygon fill="#63b8ff" stroke="#63b8ff" points="54.38,-251.77 57.88,-261.77 61.38,-251.77 54.38,-251.77"/>
</a>
</g>
</g>
<!-- Node6 -->
<g id="Node000006" class="node">
<title>Node6</title>
<g id="a_Node000006"><a xlink:title=" ">
<polygon fill="white" stroke="#666666" points="95.12,-339.25 20.62,-339.25 20.62,-320 95.12,-320 95.12,-339.25"/>
<text xml:space="preserve" text-anchor="middle" x="57.88" y="-325.75" font-family="Helvetica,sans-Serif" font-size="10.00">std::ios_base</text>
</a>
</g>
</g>
<!-- Node6&#45;&gt;Node5 -->
<g id="edge5_Node000005_Node000006" class="edge">
<title>Node6&#45;&gt;Node5</title>
<g id="a_edge5_Node000005_Node000006"><a xlink:title=" ">
<path fill="none" stroke="#63b8ff" d="M57.88,-308.44C57.88,-299.73 57.88,-289.99 57.88,-283.17"/>
<polygon fill="#63b8ff" stroke="#63b8ff" points="54.38,-308.15 57.88,-318.15 61.38,-308.15 54.38,-308.15"/>
</a>
</g>
</g>
</g>
</svg>
