<?xml version="1.0" encoding="UTF-8" standalone="no"?>
<!DOCTYPE svg PUBLIC "-//W3C//DTD SVG 1.1//EN"
 "http://www.w3.org/Graphics/SVG/1.1/DTD/svg11.dtd">
<!-- Generated by graphviz version 14.1.0 (20251206.1807)
 -->
<!-- Title: INIReader Pages: 1 -->
<svg width="564pt" height="106pt"
 viewBox="0.00 0.00 564.00 106.00" xmlns="http://www.w3.org/2000/svg" xmlns:xlink="http://www.w3.org/1999/xlink">
<g id="graph0" class="graph" transform="scale(1 1) rotate(0) translate(4 101.75)">
<title>INIReader</title>
<!-- Node1 -->
<g id="Node000001" class="node">
<title>Node1</title>
<g id="a_Node000001"><a xlink:title=" ">
<polygon fill="#999999" stroke="#666666" points="555.5,-56.12 494.5,-56.12 494.5,-36.88 555.5,-36.88 555.5,-56.12"/>
<text xml:space="preserve" text-anchor="middle" x="525" y="-42.62" font-family="Helvetica,sans-Serif" font-size="10.00">INIReader</text>
</a>
</g>
</g>
<!-- Node2 -->
<g id="Node000002" class="node">
<title>Node2</title>
<g id="a_Node000002"><a xlink:title=" ">
<polygon fill="white" stroke="#666666" points="403.38,-90.12 279.38,-90.12 279.38,-70.88 403.38,-70.88 403.38,-90.12"/>
<text xml:space="preserve" text-anchor="middle" x="341.38" y="-76.62" font-family="Helvetica,sans-Serif" font-size="10.00">std::vector&lt; std::string &gt;</text>
</a>
</g>
</g>
<!-- Node2&#45;&gt;Node1 -->
<g id="edge1_Node000001_Node000002" class="edge">
<title>Node2&#45;&gt;Node1</title>
<g id="a_edge1_Node000001_Node000002"><a xlink:title=" ">
<path fill="none" stroke="#9a32cd" stroke-dasharray="5,2" d="M407.5,-68.31C437.12,-62.76 470.71,-56.48 494.18,-52.08"/>
<polygon fill="#9a32cd" stroke="#9a32cd" points="407.05,-64.83 397.86,-70.11 408.34,-71.71 407.05,-64.83"/>
</a>
</g>
<text xml:space="preserve" text-anchor="start" x="431.5" y="-68.25" font-family="Helvetica,sans-Serif" font-size="10.00" fill="grey">_sections</text>
</g>
<!-- Node3 -->
<g id="Node000003" class="node">
<title>Node3</title>
<g id="a_Node000003"><a xlink:title=" ">
<polygon fill="white" stroke="#666666" points="190.5,-90.12 131,-90.12 131,-70.88 190.5,-70.88 190.5,-90.12"/>
<text xml:space="preserve" text-anchor="middle" x="160.75" y="-76.62" font-family="Helvetica,sans-Serif" font-size="10.00">std::string</text>
</a>
</g>
</g>
<!-- Node3&#45;&gt;Node2 -->
<g id="edge2_Node000002_Node000003" class="edge">
<title>Node3&#45;&gt;Node2</title>
<g id="a_edge2_Node000002_Node000003"><a xlink:title=" ">
<path fill="none" stroke="#9a32cd" stroke-dasharray="5,2" d="M202.11,-80.5C224.82,-80.5 253.63,-80.5 279.07,-80.5"/>
<polygon fill="#9a32cd" stroke="#9a32cd" points="202.36,-77 192.36,-80.5 202.36,-84 202.36,-77"/>
</a>
</g>
<text xml:space="preserve" text-anchor="start" x="211.5" y="-85.25" font-family="Helvetica,sans-Serif" font-size="10.00" fill="grey">elements</text>
</g>
<!-- Node4 -->
<g id="Node000004" class="node">
<title>Node4</title>
<g id="a_Node000004"><a xlink:title=" ">
<polygon fill="white" stroke="#666666" points="94,-95.75 0,-95.75 0,-65.25 94,-65.25 94,-95.75"/>
<text xml:space="preserve" text-anchor="start" x="8" y="-82.25" font-family="Helvetica,sans-Serif" font-size="10.00">std::basic_string&lt;</text>
<text xml:space="preserve" text-anchor="middle" x="47" y="-71" font-family="Helvetica,sans-Serif" font-size="10.00"> Char &gt;</text>
</a>
</g>
</g>
<!-- Node4&#45;&gt;Node3 -->
<g id="edge3_Node000003_Node000004" class="edge">
<title>Node4&#45;&gt;Node3</title>
<g id="a_edge3_Node000003_Node000004"><a xlink:title=" ">
<path fill="none" stroke="#63b8ff" d="M105.71,-80.5C114.32,-80.5 122.87,-80.5 130.55,-80.5"/>
<polygon fill="#63b8ff" stroke="#63b8ff" points="105.93,-77 95.93,-80.5 105.93,-84 105.93,-77"/>
</a>
</g>
</g>
<!-- Node5 -->
<g id="Node000005" class="node">
<title>Node5</title>
<g id="a_Node000005"><a xlink:title=" ">
<polygon fill="white" stroke="#666666" points="410.5,-53 272.25,-53 272.25,0 410.5,0 410.5,-53"/>
<text xml:space="preserve" text-anchor="start" x="280.25" y="-39.5" font-family="Helvetica,sans-Serif" font-size="10.00">std::unordered_map</text>
<text xml:space="preserve" text-anchor="start" x="280.25" y="-28.25" font-family="Helvetica,sans-Serif" font-size="10.00">&lt; std::string, std::</text>
<text xml:space="preserve" text-anchor="start" x="280.25" y="-17" font-family="Helvetica,sans-Serif" font-size="10.00">unordered_map&lt; std::string,</text>
<text xml:space="preserve" text-anchor="middle" x="341.38" y="-5.75" font-family="Helvetica,sans-Serif" font-size="10.00"> std::string &gt; &gt;</text>
</a>
</g>
</g>
<!-- Node5&#45;&gt;Node1 -->
<g id="edge4_Node000001_Node000005" class="edge">
<title>Node5&#45;&gt;Node1</title>
<g id="a_edge4_Node000001_Node000005"><a xlink:title=" ">
<path fill="none" stroke="#9a32cd" stroke-dasharray="5,2" d="M422.2,-28.55C440.14,-29.73 459.03,-31.52 476.5,-34.25 482.22,-35.14 488.26,-36.43 494.03,-37.83"/>
<polygon fill="#9a32cd" stroke="#9a32cd" points="422.58,-25.07 412.39,-27.98 422.17,-32.06 422.58,-25.07"/>
</a>
</g>
<text xml:space="preserve" text-anchor="start" x="443.12" y="-39" font-family="Helvetica,sans-Serif" font-size="10.00" fill="grey">map</text>
</g>
</g>
</svg>
