<?xml version="1.0" encoding="UTF-8" standalone="no"?>
<!DOCTYPE svg PUBLIC "-//W3C//DTD SVG 1.1//EN"
 "http://www.w3.org/Graphics/SVG/1.1/DTD/svg11.dtd">
<!-- Generated by graphviz version 14.1.0 (20251206.1807)
 -->
<!-- Title: src/eTypes.hpp Pages: 1 -->
<svg width="1013pt" height="304pt"
 viewBox="0.00 0.00 1013.00 304.00" xmlns="http://www.w3.org/2000/svg" xmlns:xlink="http://www.w3.org/1999/xlink">
<g id="graph0" class="graph" transform="scale(1 1) rotate(0) translate(4 299.5)">
<title>src/eTypes.hpp</title>
<!-- Node1 -->
<g id="Node000001" class="node">
<title>Node1</title>
<g id="a_Node000001"><a xlink:title=" ">
<polygon fill="#999999" stroke="#666666" points="260.25,-295.5 177.5,-295.5 177.5,-276.25 260.25,-276.25 260.25,-295.5"/>
<text xml:space="preserve" text-anchor="middle" x="218.88" y="-282" font-family="Helvetica,sans-Serif" font-size="10.00">src/eTypes.hpp</text>
</a>
</g>
</g>
<!-- Node2 -->
<g id="Node000002" class="node">
<title>Node2</title>
<g id="a_Node000002"><a xlink:href="c_ini_reader_8hpp.html" target="_top" xlink:title=" ">
<polygon fill="white" stroke="#666666" points="174.75,-240.25 77,-240.25 77,-221 174.75,-221 174.75,-240.25"/>
<text xml:space="preserve" text-anchor="middle" x="125.88" y="-226.75" font-family="Helvetica,sans-Serif" font-size="10.00">src/cIniReader.hpp</text>
</a>
</g>
</g>
<!-- Node1&#45;&gt;Node2 -->
<g id="edge1_Node000001_Node000002" class="edge">
<title>Node1&#45;&gt;Node2</title>
<g id="a_edge1_Node000001_Node000002"><a xlink:title=" ">
<path fill="none" stroke="#63b8ff" d="M193.49,-270.34C176.96,-260.88 155.92,-248.83 141.73,-240.7"/>
<polygon fill="#63b8ff" stroke="#63b8ff" points="191.37,-273.16 201.79,-275.09 194.85,-267.08 191.37,-273.16"/>
</a>
</g>
</g>
<!-- Node7 -->
<g id="Node000007" class="node">
<title>Node7</title>
<g id="a_Node000007"><a xlink:href="h_common_8hpp.html" target="_top" xlink:title=" ">
<polygon fill="white" stroke="#666666" points="267,-74.5 170.75,-74.5 170.75,-55.25 267,-55.25 267,-74.5"/>
<text xml:space="preserve" text-anchor="middle" x="218.88" y="-61" font-family="Helvetica,sans-Serif" font-size="10.00">src/hCommon.hpp</text>
</a>
</g>
</g>
<!-- Node1&#45;&gt;Node7 -->
<g id="edge6_Node000001_Node000007" class="edge">
<title>Node1&#45;&gt;Node7</title>
<g id="a_edge6_Node000001_Node000007"><a xlink:title=" ">
<path fill="none" stroke="#63b8ff" d="M218.88,-264.61C218.88,-218.38 218.88,-106.65 218.88,-74.6"/>
<polygon fill="#63b8ff" stroke="#63b8ff" points="215.38,-264.51 218.88,-274.51 222.38,-264.51 215.38,-264.51"/>
</a>
</g>
</g>
<!-- Node10 -->
<g id="Node000010" class="node">
<title>Node10</title>
<g id="a_Node000010"><a xlink:href="s_worker_params_8hpp.html" target="_top" xlink:title=" ">
<polygon fill="white" stroke="#666666" points="502.38,-240.25 381.38,-240.25 381.38,-221 502.38,-221 502.38,-240.25"/>
<text xml:space="preserve" text-anchor="middle" x="441.88" y="-226.75" font-family="Helvetica,sans-Serif" font-size="10.00">src/sWorkerParams.hpp</text>
</a>
</g>
</g>
<!-- Node1&#45;&gt;Node10 -->
<g id="edge10_Node000001_Node000010" class="edge">
<title>Node1&#45;&gt;Node10</title>
<g id="a_edge10_Node000001_Node000010"><a xlink:title=" ">
<path fill="none" stroke="#63b8ff" d="M268.04,-273.14C308.99,-263.36 366.48,-249.63 403.95,-240.68"/>
<polygon fill="#63b8ff" stroke="#63b8ff" points="267.34,-269.7 258.43,-275.43 268.97,-276.51 267.34,-269.7"/>
</a>
</g>
</g>
<!-- Node3 -->
<g id="Node000003" class="node">
<title>Node3</title>
<g id="a_Node000003"><a xlink:href="c_ini_reader_8cpp.html" target="_top" xlink:title=" ">
<polygon fill="white" stroke="#666666" points="97.75,-185 0,-185 0,-165.75 97.75,-165.75 97.75,-185"/>
<text xml:space="preserve" text-anchor="middle" x="48.88" y="-171.5" font-family="Helvetica,sans-Serif" font-size="10.00">src/cIniReader.cpp</text>
</a>
</g>
</g>
<!-- Node2&#45;&gt;Node3 -->
<g id="edge2_Node000002_Node000003" class="edge">
<title>Node2&#45;&gt;Node3</title>
<g id="a_edge2_Node000002_Node000003"><a xlink:title=" ">
<path fill="none" stroke="#63b8ff" d="M103.69,-214.28C90.19,-204.95 73.42,-193.35 62,-185.45"/>
<polygon fill="#63b8ff" stroke="#63b8ff" points="101.35,-216.92 111.57,-219.73 105.33,-211.16 101.35,-216.92"/>
</a>
</g>
</g>
<!-- Node4 -->
<g id="Node000004" class="node">
<title>Node4</title>
<g id="a_Node000004"><a xlink:href="c_p_query_8hpp.html" target="_top" xlink:title=" ">
<polygon fill="white" stroke="#666666" points="152.88,-74.5 64.88,-74.5 64.88,-55.25 152.88,-55.25 152.88,-74.5"/>
<text xml:space="preserve" text-anchor="middle" x="108.88" y="-61" font-family="Helvetica,sans-Serif" font-size="10.00">src/cPQuery.hpp</text>
</a>
</g>
</g>
<!-- Node2&#45;&gt;Node4 -->
<g id="edge3_Node000002_Node000004" class="edge">
<title>Node2&#45;&gt;Node4</title>
<g id="a_edge3_Node000002_Node000004"><a xlink:title=" ">
<path fill="none" stroke="#63b8ff" d="M123.78,-209.47C120.06,-173.61 112.43,-100.1 109.79,-74.72"/>
<polygon fill="#63b8ff" stroke="#63b8ff" points="120.29,-209.73 124.8,-219.32 127.25,-209.01 120.29,-209.73"/>
</a>
</g>
</g>
<!-- Node5 -->
<g id="Node000005" class="node">
<title>Node5</title>
<g id="a_Node000005"><a xlink:href="c_p_query_8cpp.html" target="_top" xlink:title=" ">
<polygon fill="white" stroke="#666666" points="204.88,-19.25 116.88,-19.25 116.88,0 204.88,0 204.88,-19.25"/>
<text xml:space="preserve" text-anchor="middle" x="160.88" y="-5.75" font-family="Helvetica,sans-Serif" font-size="10.00">src/cPQuery.cpp</text>
</a>
</g>
</g>
<!-- Node4&#45;&gt;Node5 -->
<g id="edge4_Node000004_Node000005" class="edge">
<title>Node4&#45;&gt;Node5</title>
<g id="a_edge4_Node000004_Node000005"><a xlink:title=" ">
<path fill="none" stroke="#63b8ff" d="M125.28,-47.07C134.17,-37.98 144.79,-27.1 152.1,-19.61"/>
<polygon fill="#63b8ff" stroke="#63b8ff" points="123,-44.4 118.52,-54 128.01,-49.29 123,-44.4"/>
</a>
</g>
</g>
<!-- Node6 -->
<g id="Node000006" class="node">
<title>Node6</title>
<g id="a_Node000006"><a xlink:href="main_8cpp.html" target="_top" xlink:title=" ">
<polygon fill="white" stroke="#666666" points="99,-19.25 26.75,-19.25 26.75,0 99,0 99,-19.25"/>
<text xml:space="preserve" text-anchor="middle" x="62.88" y="-5.75" font-family="Helvetica,sans-Serif" font-size="10.00">src/main.cpp</text>
</a>
</g>
</g>
<!-- Node4&#45;&gt;Node6 -->
<g id="edge5_Node000004_Node000006" class="edge">
<title>Node4&#45;&gt;Node6</title>
<g id="a_edge5_Node000004_Node000006"><a xlink:title=" ">
<path fill="none" stroke="#63b8ff" d="M93.87,-46.51C86.12,-37.53 76.97,-26.95 70.64,-19.61"/>
<polygon fill="#63b8ff" stroke="#63b8ff" points="91.1,-48.66 100.29,-53.94 96.4,-44.08 91.1,-48.66"/>
</a>
</g>
</g>
<!-- Node7&#45;&gt;Node5 -->
<g id="edge9_Node000007_Node000005" class="edge">
<title>Node7&#45;&gt;Node5</title>
<g id="a_edge9_Node000007_Node000005"><a xlink:title=" ">
<path fill="none" stroke="#63b8ff" d="M200.61,-47.11C190.66,-37.97 178.74,-27.03 170.57,-19.52"/>
<polygon fill="#63b8ff" stroke="#63b8ff" points="198.19,-49.63 207.92,-53.82 202.92,-44.48 198.19,-49.63"/>
</a>
</g>
</g>
<!-- Node8 -->
<g id="Node000008" class="node">
<title>Node8</title>
<g id="a_Node000008"><a xlink:href="c_logger_8cpp.html" target="_top" xlink:title=" ">
<polygon fill="white" stroke="#666666" points="308.38,-19.25 223.38,-19.25 223.38,0 308.38,0 308.38,-19.25"/>
<text xml:space="preserve" text-anchor="middle" x="265.88" y="-5.75" font-family="Helvetica,sans-Serif" font-size="10.00">src/cLogger.cpp</text>
</a>
</g>
</g>
<!-- Node7&#45;&gt;Node8 -->
<g id="edge7_Node000007_Node000008" class="edge">
<title>Node7&#45;&gt;Node8</title>
<g id="a_edge7_Node000007_Node000008"><a xlink:title=" ">
<path fill="none" stroke="#63b8ff" d="M234.2,-46.51C242.13,-37.53 251.47,-26.95 257.95,-19.61"/>
<polygon fill="#63b8ff" stroke="#63b8ff" points="231.63,-44.13 227.64,-53.95 236.88,-48.77 231.63,-44.13"/>
</a>
</g>
</g>
<!-- Node9 -->
<g id="Node000009" class="node">
<title>Node9</title>
<g id="a_Node000009"><a xlink:href="c_mysql_worker_8cpp.html" target="_top" xlink:title=" ">
<polygon fill="white" stroke="#666666" points="515.25,-19.25 402.5,-19.25 402.5,0 515.25,0 515.25,-19.25"/>
<text xml:space="preserve" text-anchor="middle" x="458.88" y="-5.75" font-family="Helvetica,sans-Serif" font-size="10.00">src/cMysqlWorker.cpp</text>
</a>
</g>
</g>
<!-- Node7&#45;&gt;Node9 -->
<g id="edge8_Node000007_Node000009" class="edge">
<title>Node7&#45;&gt;Node9</title>
<g id="a_edge8_Node000007_Node000009"><a xlink:title=" ">
<path fill="none" stroke="#63b8ff" d="M270.94,-52.32C315.07,-42.53 377.48,-28.69 418.06,-19.68"/>
<polygon fill="#63b8ff" stroke="#63b8ff" points="270.34,-48.87 261.34,-54.45 271.86,-55.7 270.34,-48.87"/>
</a>
</g>
</g>
<!-- Node11 -->
<g id="Node000011" class="node">
<title>Node11</title>
<g id="a_Node000011"><a xlink:href="c_database_8hpp.html" target="_top" xlink:title=" ">
<polygon fill="white" stroke="#666666" points="608.12,-185 509.62,-185 509.62,-165.75 608.12,-165.75 608.12,-185"/>
<text xml:space="preserve" text-anchor="middle" x="558.88" y="-171.5" font-family="Helvetica,sans-Serif" font-size="10.00">src/cDatabase.hpp</text>
</a>
</g>
</g>
<!-- Node10&#45;&gt;Node11 -->
<g id="edge11_Node000010_Node000011" class="edge">
<title>Node10&#45;&gt;Node11</title>
<g id="a_edge11_Node000010_Node000011"><a xlink:title=" ">
<path fill="none" stroke="#63b8ff" d="M472.06,-215.89C493.1,-206.31 520.58,-193.81 538.93,-185.45"/>
<polygon fill="#63b8ff" stroke="#63b8ff" points="470.75,-212.64 463.1,-219.96 473.65,-219.01 470.75,-212.64"/>
</a>
</g>
</g>
<!-- Node13 -->
<g id="Node000013" class="node">
<title>Node13</title>
<g id="a_Node000013"><a xlink:href="c_db_worker_8hpp.html" target="_top" xlink:title=" ">
<polygon fill="white" stroke="#666666" points="491.5,-129.75 392.25,-129.75 392.25,-110.5 491.5,-110.5 491.5,-129.75"/>
<text xml:space="preserve" text-anchor="middle" x="441.88" y="-116.25" font-family="Helvetica,sans-Serif" font-size="10.00">src/cDbWorker.hpp</text>
</a>
</g>
</g>
<!-- Node10&#45;&gt;Node13 -->
<g id="edge26_Node000010_Node000013" class="edge">
<title>Node10&#45;&gt;Node13</title>
<g id="a_edge26_Node000010_Node000013"><a xlink:title=" ">
<path fill="none" stroke="#63b8ff" d="M441.88,-209.28C441.88,-185.55 441.88,-147.39 441.88,-130.13"/>
<polygon fill="#63b8ff" stroke="#63b8ff" points="438.38,-209.23 441.88,-219.23 445.38,-209.23 438.38,-209.23"/>
</a>
</g>
</g>
<!-- Node12 -->
<g id="Node000012" class="node">
<title>Node12</title>
<g id="a_Node000012"><a xlink:href="c_database_8cpp.html" target="_top" xlink:title=" ">
<polygon fill="white" stroke="#666666" points="608.12,-129.75 509.62,-129.75 509.62,-110.5 608.12,-110.5 608.12,-129.75"/>
<text xml:space="preserve" text-anchor="middle" x="558.88" y="-116.25" font-family="Helvetica,sans-Serif" font-size="10.00">src/cDatabase.cpp</text>
</a>
</g>
</g>
<!-- Node11&#45;&gt;Node12 -->
<g id="edge12_Node000011_Node000012" class="edge">
<title>Node11&#45;&gt;Node12</title>
<g id="a_edge12_Node000011_Node000012"><a xlink:title=" ">
<path fill="none" stroke="#63b8ff" d="M558.88,-154.13C558.88,-145.84 558.88,-136.67 558.88,-130.11"/>
<polygon fill="#63b8ff" stroke="#63b8ff" points="555.38,-154.07 558.88,-164.07 562.38,-154.07 555.38,-154.07"/>
</a>
</g>
</g>
<!-- Node11&#45;&gt;Node13 -->
<g id="edge13_Node000011_Node000013" class="edge">
<title>Node11&#45;&gt;Node13</title>
<g id="a_edge13_Node000011_Node000013"><a xlink:title=" ">
<path fill="none" stroke="#63b8ff" d="M528.69,-160.64C507.65,-151.06 480.17,-138.56 461.82,-130.2"/>
<polygon fill="#63b8ff" stroke="#63b8ff" points="527.1,-163.76 537.65,-164.71 530,-157.39 527.1,-163.76"/>
</a>
</g>
</g>
<!-- Node18 -->
<g id="Node000018" class="node">
<title>Node18</title>
<g id="a_Node000018"><a xlink:href="c_mysql_database_8hpp.html" target="_top" xlink:title=" ">
<polygon fill="white" stroke="#666666" points="751.25,-129.75 626.5,-129.75 626.5,-110.5 751.25,-110.5 751.25,-129.75"/>
<text xml:space="preserve" text-anchor="middle" x="688.88" y="-116.25" font-family="Helvetica,sans-Serif" font-size="10.00">src/cMysqlDatabase.hpp</text>
</a>
</g>
</g>
<!-- Node11&#45;&gt;Node18 -->
<g id="edge20_Node000011_Node000018" class="edge">
<title>Node11&#45;&gt;Node18</title>
<g id="a_edge20_Node000011_Node000018"><a xlink:title=" ">
<path fill="none" stroke="#63b8ff" d="M591.45,-161.03C614.94,-151.41 646.04,-138.67 666.71,-130.2"/>
<polygon fill="#63b8ff" stroke="#63b8ff" points="590.26,-157.74 582.33,-164.77 592.91,-164.22 590.26,-157.74"/>
</a>
</g>
</g>
<!-- Node20 -->
<g id="Node000020" class="node">
<title>Node20</title>
<g id="a_Node000020"><a xlink:href="c_pgsql_database_8hpp.html" target="_top" xlink:title=" ">
<polygon fill="white" stroke="#666666" points="914.5,-129.75 791.25,-129.75 791.25,-110.5 914.5,-110.5 914.5,-129.75"/>
<text xml:space="preserve" text-anchor="middle" x="852.88" y="-116.25" font-family="Helvetica,sans-Serif" font-size="10.00">src/cPgsqlDatabase.hpp</text>
</a>
</g>
</g>
<!-- Node11&#45;&gt;Node20 -->
<g id="edge23_Node000011_Node000020" class="edge">
<title>Node11&#45;&gt;Node20</title>
<g id="a_edge23_Node000011_Node000020"><a xlink:title=" ">
<path fill="none" stroke="#63b8ff" d="M619.58,-163.38C673.69,-153.58 751.97,-139.4 802.64,-130.22"/>
<polygon fill="#63b8ff" stroke="#63b8ff" points="619.12,-159.91 609.9,-165.13 620.37,-166.79 619.12,-159.91"/>
</a>
</g>
</g>
<!-- Node13&#45;&gt;Node4 -->
<g id="edge17_Node000013_Node000004" class="edge">
<title>Node13&#45;&gt;Node4</title>
<g id="a_edge17_Node000013_Node000004"><a xlink:title=" ">
<path fill="none" stroke="#63b8ff" d="M380.51,-109.4C323.77,-100.4 237.12,-86.62 161.88,-74.5 159.02,-74.04 156.08,-73.57 153.12,-73.09"/>
<polygon fill="#63b8ff" stroke="#63b8ff" points="379.87,-112.85 390.3,-110.96 380.97,-105.93 379.87,-112.85"/>
</a>
</g>
</g>
<!-- Node14 -->
<g id="Node000014" class="node">
<title>Node14</title>
<g id="a_Node000014"><a xlink:href="c_db_worker_8cpp.html" target="_top" xlink:title=" ">
<polygon fill="white" stroke="#666666" points="384.5,-74.5 285.25,-74.5 285.25,-55.25 384.5,-55.25 384.5,-74.5"/>
<text xml:space="preserve" text-anchor="middle" x="334.88" y="-61" font-family="Helvetica,sans-Serif" font-size="10.00">src/cDbWorker.cpp</text>
</a>
</g>
</g>
<!-- Node13&#45;&gt;Node14 -->
<g id="edge14_Node000013_Node000014" class="edge">
<title>Node13&#45;&gt;Node14</title>
<g id="a_edge14_Node000013_Node000014"><a xlink:title=" ">
<path fill="none" stroke="#63b8ff" d="M413.48,-104.99C394.34,-95.47 369.67,-83.19 353.12,-74.95"/>
<polygon fill="#63b8ff" stroke="#63b8ff" points="411.86,-108.1 422.37,-109.42 414.98,-101.83 411.86,-108.1"/>
</a>
</g>
</g>
<!-- Node15 -->
<g id="Node000015" class="node">
<title>Node15</title>
<g id="a_Node000015"><a xlink:href="c_mysql_worker_8hpp.html" target="_top" xlink:title=" ">
<polygon fill="white" stroke="#666666" points="515.25,-74.5 402.5,-74.5 402.5,-55.25 515.25,-55.25 515.25,-74.5"/>
<text xml:space="preserve" text-anchor="middle" x="458.88" y="-61" font-family="Helvetica,sans-Serif" font-size="10.00">src/cMysqlWorker.hpp</text>
</a>
</g>
</g>
<!-- Node13&#45;&gt;Node15 -->
<g id="edge15_Node000013_Node000015" class="edge">
<title>Node13&#45;&gt;Node15</title>
<g id="a_edge15_Node000013_Node000015"><a xlink:title=" ">
<path fill="none" stroke="#63b8ff" d="M448.15,-99.46C450.85,-91.02 453.86,-81.58 456.01,-74.86"/>
<polygon fill="#63b8ff" stroke="#63b8ff" points="444.85,-98.3 445.14,-108.89 451.52,-100.43 444.85,-98.3"/>
</a>
</g>
</g>
<!-- Node16 -->
<g id="Node000016" class="node">
<title>Node16</title>
<g id="a_Node000016"><a xlink:href="c_pgsql_worker_8hpp.html" target="_top" xlink:title=" ">
<polygon fill="white" stroke="#666666" points="644.5,-74.5 533.25,-74.5 533.25,-55.25 644.5,-55.25 644.5,-74.5"/>
<text xml:space="preserve" text-anchor="middle" x="588.88" y="-61" font-family="Helvetica,sans-Serif" font-size="10.00">src/cPgsqlWorker.hpp</text>
</a>
</g>
</g>
<!-- Node13&#45;&gt;Node16 -->
<g id="edge18_Node000013_Node000016" class="edge">
<title>Node13&#45;&gt;Node16</title>
<g id="a_edge18_Node000013_Node000016"><a xlink:title=" ">
<path fill="none" stroke="#63b8ff" d="M477.63,-106.17C504.32,-96.5 540.12,-83.54 563.82,-74.95"/>
<polygon fill="#63b8ff" stroke="#63b8ff" points="476.44,-102.88 468.23,-109.58 478.83,-109.46 476.44,-102.88"/>
</a>
</g>
</g>
<!-- Node15&#45;&gt;Node9 -->
<g id="edge16_Node000015_Node000009" class="edge">
<title>Node15&#45;&gt;Node9</title>
<g id="a_edge16_Node000015_Node000009"><a xlink:title=" ">
<path fill="none" stroke="#63b8ff" d="M458.88,-43.63C458.88,-35.34 458.88,-26.17 458.88,-19.61"/>
<polygon fill="#63b8ff" stroke="#63b8ff" points="455.38,-43.57 458.88,-53.57 462.38,-43.57 455.38,-43.57"/>
</a>
</g>
</g>
<!-- Node17 -->
<g id="Node000017" class="node">
<title>Node17</title>
<g id="a_Node000017"><a xlink:href="c_pgsql_worker_8cpp.html" target="_top" xlink:title=" ">
<polygon fill="white" stroke="#666666" points="776.5,-19.25 665.25,-19.25 665.25,0 776.5,0 776.5,-19.25"/>
<text xml:space="preserve" text-anchor="middle" x="720.88" y="-5.75" font-family="Helvetica,sans-Serif" font-size="10.00">src/cPgsqlWorker.cpp</text>
</a>
</g>
</g>
<!-- Node16&#45;&gt;Node17 -->
<g id="edge19_Node000016_Node000017" class="edge">
<title>Node16&#45;&gt;Node17</title>
<g id="a_edge19_Node000016_Node000017"><a xlink:title=" ">
<path fill="none" stroke="#63b8ff" d="M621.63,-50.66C645.52,-41.02 677.29,-28.21 698.37,-19.7"/>
<polygon fill="#63b8ff" stroke="#63b8ff" points="620.64,-47.29 612.67,-54.28 623.25,-53.78 620.64,-47.29"/>
</a>
</g>
</g>
<!-- Node18&#45;&gt;Node9 -->
<g id="edge22_Node000018_Node000009" class="edge">
<title>Node18&#45;&gt;Node9</title>
<g id="a_edge22_Node000018_Node000009"><a xlink:title=" ">
<path fill="none" stroke="#63b8ff" d="M682.95,-99.37C677.63,-85 668.38,-66.21 653.88,-55.25 614.12,-25.2 557.66,-14.82 515.72,-11.49"/>
<polygon fill="#63b8ff" stroke="#63b8ff" points="679.58,-100.32 686.05,-108.7 686.22,-98.11 679.58,-100.32"/>
</a>
</g>
</g>
<!-- Node19 -->
<g id="Node000019" class="node">
<title>Node19</title>
<g id="a_Node000019"><a xlink:href="c_mysql_database_8cpp.html" target="_top" xlink:title=" ">
<polygon fill="white" stroke="#666666" points="825.25,-74.5 700.5,-74.5 700.5,-55.25 825.25,-55.25 825.25,-74.5"/>
<text xml:space="preserve" text-anchor="middle" x="762.88" y="-61" font-family="Helvetica,sans-Serif" font-size="10.00">src/cMysqlDatabase.cpp</text>
</a>
</g>
</g>
<!-- Node18&#45;&gt;Node19 -->
<g id="edge21_Node000018_Node000019" class="edge">
<title>Node18&#45;&gt;Node19</title>
<g id="a_edge21_Node000018_Node000019"><a xlink:title=" ">
<path fill="none" stroke="#63b8ff" d="M710.63,-103.47C723.63,-94.12 739.66,-82.58 750.51,-74.77"/>
<polygon fill="#63b8ff" stroke="#63b8ff" points="708.73,-100.53 702.66,-109.21 712.82,-106.21 708.73,-100.53"/>
</a>
</g>
</g>
<!-- Node20&#45;&gt;Node17 -->
<g id="edge25_Node000020_Node000017" class="edge">
<title>Node20&#45;&gt;Node17</title>
<g id="a_edge25_Node000020_Node000017"><a xlink:title=" ">
<path fill="none" stroke="#63b8ff" d="M851.42,-98.83C849.43,-85.01 844.77,-67.13 833.88,-55.25 817.2,-37.06 792.16,-26.17 769.89,-19.72"/>
<polygon fill="#63b8ff" stroke="#63b8ff" points="847.92,-99 852.44,-108.58 854.88,-98.28 847.92,-99"/>
</a>
</g>
</g>
<!-- Node21 -->
<g id="Node000021" class="node">
<title>Node21</title>
<g id="a_Node000021"><a xlink:href="c_pgsql_database_8cpp.html" target="_top" xlink:title=" ">
<polygon fill="white" stroke="#666666" points="1004.5,-74.5 881.25,-74.5 881.25,-55.25 1004.5,-55.25 1004.5,-74.5"/>
<text xml:space="preserve" text-anchor="middle" x="942.88" y="-61" font-family="Helvetica,sans-Serif" font-size="10.00">src/cPgsqlDatabase.cpp</text>
</a>
</g>
</g>
<!-- Node20&#45;&gt;Node21 -->
<g id="edge24_Node000020_Node000021" class="edge">
<title>Node20&#45;&gt;Node21</title>
<g id="a_edge24_Node000020_Node000021"><a xlink:title=" ">
<path fill="none" stroke="#63b8ff" d="M877.89,-104.32C893.82,-94.9 913.93,-83 927.53,-74.95"/>
<polygon fill="#63b8ff" stroke="#63b8ff" points="876.27,-101.22 869.44,-109.32 879.83,-107.24 876.27,-101.22"/>
</a>
</g>
</g>
</g>
</svg>
